<?xml version="1.0" standalone="no"?>
<!DOCTYPE svg PUBLIC "-//W3C//DTD SVG 1.1//EN" "http://www.w3.org/Graphics/SVG/1.1/DTD/svg11.dtd" >
<svg xmlns="http://www.w3.org/2000/svg" xmlns:xlink="http://www.w3.org/1999/xlink" version="1.1">
<metadata>
Created by FontForge 20200427 at Fri Nov 27 00:13:29 2009
 By www
(c) Tim Cant 2009 All rights reserved
</metadata>
<defs>
<font id="Awesome" horiz-adv-x="445" >
  <font-face 
    font-family="Awesome"
    font-weight="400"
    font-stretch="normal"
    units-per-em="1000"
    panose-1="2 0 7 4 3 2 0 2 0 4"
    ascent="750"
    descent="-250"
    x-height="502"
    cap-height="731"
    bbox="-26.7647 -371.091 853.143 993.2"
    underline-thickness="50"
    underline-position="-100"
    unicode-range="U+0020-FB02"
  />
<missing-glyph horiz-adv-x="500" 
 />
    <glyph glyph-name=".notdef" horiz-adv-x="500" 
 />
    <glyph glyph-name=".null" horiz-adv-x="0" 
 />
    <glyph glyph-name="nonmarkingreturn" horiz-adv-x="500" 
 />
    <glyph glyph-name="space" unicode=" " horiz-adv-x="243" 
 />
    <glyph glyph-name="space" unicode="&#xa0;" horiz-adv-x="243" 
 />
    <glyph glyph-name="E" unicode="E" horiz-adv-x="507" 
d="M188 654l-9 -230l107 -2q4 9 5 18q1 10 12.5 17t24 7t23 -7t9.5 -23q-1 -3 -1 -16v-71v-14q1 -19 -9 -26.5t-23 -7t-24 7.5t-13 19q-2 15 -6 24l-99 3l-3 -245l197 -2q5 8 6 20q1 10 12.5 16.5t24 7t23 -6.5t9.5 -23q0 -2 -0.5 -6t-0.5 -9q-1 -8 -1 -15q-2 -13 0 -23
q1 -9 -6.5 -21t-21.5 -11h-19.5t-40.5 0.5t-53.5 1t-59.5 0.5q-71 1 -160 3q-15 0 -19 -1q-19 -1 -27 9t-7.5 23t8 24t19.5 13q13 1 22 6l21 547q-6 2 -17 4q-12 1 -19 12.5t-7.5 24.5t7 23.5t26.5 9.5h8t11 -1q81 0 147 -1q28 0 56 -0.5t51 -1t38.5 -1t20.5 -1.5
q18 -4 31 -12t14 -21q1 -7 1.5 -12.5t0.5 -10.5v-9v-19q1 -19 -9 -27t-22.5 -7.5t-24 8t-12.5 19.5q-1 9 -5 18z" />
    <glyph glyph-name="F" unicode="F" horiz-adv-x="492" 
d="M475 628q1 -19 -9 -27t-22.5 -7.5t-24 8t-12.5 19.5q-1 9 -5 18l-217 -2l-8 -230l106 -2q2 4 3 8.5t3 9.5q1 10 12.5 17t24 7t22.5 -7t9 -23v-16v-71h-1q1 -5 1 -8.5v-5.5q1 -19 -9 -26.5t-23 -7t-24 7.5t-13 19q-2 16 -7 24l-99 3l-3 -234q9 -4 21 -5q12 -2 20 -14
t8.5 -25.5t-7.5 -24t-27 -9.5h-17l-88 -1q-15 0 -19 -1q-19 -1 -27 9t-7.5 23t8 24t19.5 13q13 1 22 6l21 547l-8 2t-9 2q-12 1 -19.5 12.5t-8 24.5t7.5 23.5t27 9.5h7.5t11.5 -1q87 -1 157 -2q30 0 59.5 -0.5t53.5 -1.5t40 -1.5t20 -0.5q16 -2 21.5 -13t6.5 -22q1 -6 1 -11
v-9v-9h1v-19z" />
    <glyph glyph-name="G" unicode="G" horiz-adv-x="475" 
d="M406 340q23 -2 32 -14.5t7 -27t-13.5 -26t-29.5 -10.5q-9 1 -16 -5t-13 -14q0 -2 0.5 -15t1 -28t0.5 -28v-15q3 -43 -9.5 -74.5t-36.5 -51.5t-57 -28.5t-70 -4.5q-39 4 -74 17.5t-60 52t-36.5 109t-1.5 187.5q9 110 37 173t65 90t79 23t79 -27q3 17 13.5 28t27.5 11
q10 0 20.5 -5.5t19 -17t14 -28t5.5 -38.5q0 -44 -9.5 -57t-31.5 -13q-20 0 -39.5 12.5t-22.5 39.5q-11 11 -27.5 20t-45.5 10t-50 -20.5t-35.5 -59.5t-23.5 -89.5t-13 -109.5q-6 -68 1.5 -114t23 -74.5t36.5 -41.5t42 -15t42.5 2t38.5 14.5t27 27t9 39.5q0 3 -0.5 16.5
t-0.5 29.5t0.5 29.5t0.5 15.5q-7 20 -15.5 28.5t-31.5 11.5q-12 2 -20 13t-8.5 24t7.5 23t28 9q12 -1 50.5 -1t83.5 -3z" />
    <glyph glyph-name="H" unicode="H" horiz-adv-x="563" 
d="M491 53q18 1 29 -10.5t13 -26t-7 -27t-31 -14.5q-45 -3 -82 -3t-49 -1q-19 -1 -27 9t-7.5 23t8 24t19.5 13q15 2 23.5 6t13.5 12l-4 212l-222 9l-14 -208q5 -11 14 -16.5t27 -8.5q12 -2 19.5 -13t8 -23.5t-7.5 -22.5t-27 -9q-12 0 -50.5 0.5t-84.5 3.5q-23 2 -31.5 14.5
t-6.5 27t13.5 26t29.5 10.5q16 -1 28 19l20 497q-12 14 -24 14q-18 -1 -29.5 10.5t-13.5 25.5t7 26.5t31 14.5t43 3t39 1t31 0.5t19 0.5q18 1 26 -9.5t7.5 -23t-8 -24t-19.5 -12.5q-17 -2 -25.5 -7t-13.5 -16l-2 -219h213l15 213q-6 9 -14.5 14t-24.5 7q-12 1 -20 12.5
t-8 24t8 22.5t27 9q12 0 50.5 -0.5t83.5 -3.5q23 -2 32 -14.5t7 -26.5t-13.5 -25.5t-29.5 -10.5q-17 0 -29 -20l-6 -492q10 -18 26 -17z" />
    <glyph glyph-name="I" unicode="I" horiz-adv-x="262" 
d="M204 82q12 -2 19.5 -13t8 -24t-7.5 -23t-27 -9q-12 1 -50.5 1t-84.5 3q-23 2 -31.5 14.5t-6.5 27t13.5 26t29.5 10.5q8 -1 14 3.5t11 11.5l5 531q-5 4 -9.5 6.5t-10.5 1.5q-18 -1 -29 10.5t-13 26t7 27t31 14.5q45 3 82 3.5t49 0.5q19 1 27 -9t7.5 -22.5t-8 -24
t-19.5 -12.5q-16 -2 -24.5 -7t-13.5 -14l-12 -533q6 -12 15 -18.5t28 -8.5z" />
    <glyph glyph-name="J" unicode="J" horiz-adv-x="438" 
d="M385 677q23 -2 32 -14.5t7 -26.5t-13.5 -25.5t-29.5 -10.5q-17 0 -28 -19q-2 -46 -4 -107.5t-4.5 -126t-4 -125.5t-1.5 -106q-1 -46 -17.5 -74.5t-42 -43t-57.5 -16.5t-63 3.5t-58 17t-43 24.5q-20 16 -24 34.5t2.5 30.5t22.5 13.5t36 -14.5q27 -21 56 -30.5t54.5 -7
t42.5 18.5t20 48q1 15 2.5 46.5t3 72.5t3 88.5t3 94.5t2.5 91t2 78q-6 10 -14.5 15t-25.5 7q-12 2 -20 13t-8 24t8 23t27 9q12 -1 50.5 -1t83.5 -4z" />
    <glyph glyph-name="K" unicode="K" horiz-adv-x="497" 
d="M463 79q12 -2 19.5 -13t8 -24t-7.5 -23t-27 -9q-12 1 -51 1t-84 4q-20 1 -30.5 11t-12.5 22.5t4 24.5t19 17l-123 211l-7 -204q11 -6 26 -7q12 -2 20 -13t8 -24t-8 -23t-27 -9q-12 1 -50.5 1t-84.5 4q-23 1 -31.5 13.5t-6.5 27t13.5 26t29.5 10.5q12 0 21 9l20 525
q-8 5 -16 5q-18 -1 -29 10.5t-13 26t7 27t31 14.5q45 3 82 3t49 1q19 1 27 -9t7.5 -23t-8 -24t-19.5 -13q-23 -3 -31 -12l-12 -256l92 167q-16 1 -26 13t-10.5 25.5t8.5 25t30 13.5q44 3 81.5 3.5t49.5 0.5q19 1 26.5 -9t7 -22.5t-7.5 -24t-19 -12.5q-6 -1 -12.5 -2
t-13.5 -3l-150 -219l178 -255q15 -3 28.5 -5t24.5 -4z" />
    <glyph glyph-name="L" unicode="L" horiz-adv-x="499" 
d="M464 70q1 -2 1 -6v-9t-1 -14q-2 -18 -13 -33.5t-40 -20.5q-8 -1 -25.5 -1.5t-41 -1t-51.5 -0.5h-56q-66 0 -145 1h-7h-9q-18 -1 -26 10t-7 24.5t8.5 25t19.5 13.5q13 3 21 6l3 544q-6 10 -15 15.5t-26 7.5q-12 1 -19.5 12.5t-8 24t7.5 22.5t27 9q13 0 51.5 -0.5
t83.5 -3.5q22 -2 31 -14.5t7 -27t-13.5 -26t-29.5 -10.5q-14 1 -26 -16l13 -528l209 -2q2 4 2.5 8t1.5 9q2 12 14 20.5t25.5 10t24 -5.5t9.5 -26v-17z" />
    <glyph glyph-name="M" unicode="M" horiz-adv-x="739" 
d="M677 107q18 1 29 -10.5t13 -26t-7 -27t-31 -14.5q-45 -3 -82 -3t-49 -1q-19 -1 -26.5 9t-7 23t7.5 24t19 13q18 2 27 8t14 18l-14 409q-27 -93 -51 -171q-10 -33 -20.5 -67t-20 -63t-17 -51.5t-11.5 -32.5q-40 -100 -74.5 -97t-71.5 92q-5 12 -13 32t-17.5 45.5t-20.5 54
t-22 56.5q-26 65 -55 140l-7 -354q5 -10 14 -15t26 -7q12 -2 19.5 -13t8 -24t-7.5 -23t-27 -9q-12 1 -51 1t-84 3q-23 2 -31.5 14.5t-6.5 27t13.5 26t29.5 10.5q12 -1 24 14v537q-6 2 -18 4t-19.5 13.5t-8 24t7.5 23t27 9.5h19v-1h19q17 0 28.5 -10t22.5 -30q3 -7 16.5 -42
t32.5 -84.5t40.5 -106t40.5 -106.5t32.5 -86l16.5 -44q10 -23 26.5 -23.5t24.5 16.5q4 9 14 43.5t23 80.5t27.5 98.5t26.5 98.5t21 79t12 41q10 32 28.5 50t37.5 22t33 -7.5t14 -37.5v-47t0.5 -80.5t0.5 -101.5t0.5 -111.5t1 -109.5t0.5 -95q6 -12 14 -20.5t19 -7.5z" />
    <glyph glyph-name="N" unicode="N" horiz-adv-x="546" 
d="M487 679q19 1 27 -9t7.5 -22.5t-8 -24t-19.5 -12.5q-16 -2 -24.5 -7t-13.5 -14q-1 -38 -2 -86.5t-2 -100t-2 -102.5t-1.5 -93t-1.5 -72t-1 -39q-1 -24 -12 -43.5t-25 -28.5t-29.5 -3.5t-25.5 30.5q-5 13 -14 37.5t-21 56.5t-26 68.5t-27 72.5q-32 84 -68 185l-16 -404
q5 -4 11.5 -5.5t16.5 -3.5q12 -2 19.5 -13t8 -24t-7.5 -23t-27 -9q-13 1 -51.5 1t-83.5 4q-23 1 -31.5 14t-6.5 27t13.5 25.5t29.5 10.5q8 0 17 7l12 523q-4 1 -14 3q-12 1 -19.5 13.5t-8 26t7.5 24t27 9.5h8h45q15 0 35 -6.5t27 -28.5q1 -6 9.5 -27.5t20.5 -53.5t27 -71
t31 -79q37 -93 83 -209l2 382q-10 13 -23 12q-18 -1 -29 10.5t-13 26t7 27t31 14.5q45 3 82 3.5t49 0.5z" />
    <glyph glyph-name="O" unicode="O" horiz-adv-x="490" 
d="M254 685q66 2 106.5 -24.5t62.5 -73t29.5 -109t7.5 -134.5q0 -71 -9.5 -132.5t-35 -106.5t-69.5 -71t-112 -26q-62 0 -102.5 30.5t-64 81.5t-31.5 118.5t-5 141.5q2 57 20 111.5t48 97t69.5 69t85.5 27.5z" />
    <glyph glyph-name="P" unicode="P" horiz-adv-x="411" 
d="M162 660q61 0 103.5 -14t68.5 -40.5t37.5 -64t10.5 -84.5t-19.5 -82t-48 -57.5t-67 -33.5t-76.5 -9l-13 -229q9 -12 36 -16q12 -2 19.5 -13t8 -23.5t-7.5 -22.5t-27 -9q-13 0 -51.5 0.5t-83.5 3.5q-23 1 -32 14t-7 27t13.5 25.5t29.5 10.5q11 0 19 8t14 19l8 511l-8 2
t-9 2q-12 1 -19.5 13.5t-8 26t7.5 24t26 9.5h12q6 0 15 1q8 0 20 0.5t29 0.5z" />
    <glyph glyph-name="Q" unicode="Q" horiz-adv-x="504" 
d="M264 701q63 0 105.5 -30.5t67 -81.5t33 -118.5t4.5 -141.5q-2 -57 -20.5 -110.5t-48.5 -95.5q26 -27 28.5 -40.5t-8.5 -25.5q-12 -12 -33.5 -13.5t-43.5 19.5q-48 -38 -104 -39q-69 -2 -110.5 24t-64 72.5t-30 109.5t-7.5 135q0 71 10 132.5t36 106.5t71 71t115 26z" />
    <glyph glyph-name="R" unicode="R" 
d="M403 101q16 1 26 -9t11.5 -22.5t-6.5 -24t-27 -12.5q-39 -3 -72 -3t-44 -1q-17 -1 -23.5 8t-6.5 20t6.5 21t17.5 12q14 1 20 6q-7 29 -18 62t-23 63t-23.5 52.5t-18.5 30.5q-7 -4 -24 -7.5t-32 -1.5l2 -205q10 -10 34 -14q12 -2 19.5 -13t8 -23.5t-7.5 -22.5t-27 -9
q-12 0 -50.5 0.5t-84.5 3.5q-23 2 -31.5 14.5t-6.5 27t13.5 26t29.5 10.5q12 -1 24 13l13 521q-5 2 -16 4q-12 1 -19.5 12.5t-8 24.5t7.5 23.5t27 9.5h11q98 4 155.5 -11.5t87 -43.5t37 -65t6.5 -75q-2 -38 -8 -66t-17.5 -49t-29 -37t-42.5 -30q9 -13 19.5 -36.5t20.5 -52
t19 -59t16 -58.5q10 -6 19 -10t16 -4z" />
    <glyph glyph-name="S" unicode="S" horiz-adv-x="438" 
d="M340 346q27 -21 43.5 -55t22.5 -72t1 -76t-22 -67t-49.5 -41.5t-70.5 -14.5t-76.5 3.5t-67.5 14.5v-3q0 -18 -8 -31.5t-22 -13.5q-15 0 -29.5 20t-14.5 60t7 51.5t24 11.5q14 0 28 -6.5t28 -15.5q28 -18 59.5 -23.5t60 -0.5t49 21t26.5 41t3.5 54.5t-15 55.5t-37.5 44
t-64 21q-26 1 -58.5 4t-61.5 20t-49 55.5t-21 110.5q-1 62 23 98.5t62 50.5t85 7t92 -33l1 2q0 18 7.5 32t22.5 14t29 -20t14 -60t-6.5 -52t-23.5 -12q-22 1 -34.5 6.5t-23.5 17.5q-24 24 -51.5 33.5t-51.5 5.5t-43 -18.5t-27 -38.5q-10 -31 -9 -56.5t10 -44.5t25 -31.5
t36 -17.5q11 -3 32.5 -5t47 -7t51.5 -14t46 -25z" />
    <glyph glyph-name="T" unicode="T" horiz-adv-x="465" 
d="M459 562v-12q1 -19 -9.5 -26.5t-23.5 -7t-25 8t-13 19.5q-2 12 -4 18l-105 1l-11 -530h14q18 1 29.5 -10.5t13.5 -26t-7 -27t-31 -14.5q-44 -3 -82 -3.5t-49 -0.5q-19 -1 -27 9t-7.5 22.5t8 23.5t19.5 13q11 2 18 4.5t12 6.5l25 533l-124 4q-1 -4 -3 -14
q-2 -12 -14 -19.5t-25.5 -8t-24 7.5t-9.5 27v11v8v8.5t1 9.5q2 11 15.5 25t39.5 16q9 0 36.5 0.5t64 0t77.5 -1t77.5 -1.5t62.5 -1.5t34 -1.5q22 -2 34.5 -15t12.5 -27v-29z" />
    <glyph glyph-name="U" unicode="U" horiz-adv-x="573" 
d="M519 704q22 -2 31 -14.5t7 -26.5t-13.5 -25.5t-29.5 -10.5q-11 0 -19 -8.5t-14 -20.5l-4 -555v-16q-1 -9 -10.5 -13t-20.5 -3t-20.5 6t-10.5 15q-1 5 -2.5 14.5t-3.5 13.5q-26 -19 -48.5 -28t-42 -12t-35.5 -2.5t-29 0.5q-9 0 -24.5 1t-33 8t-36 21.5t-33 41.5t-24 69
t-9.5 103q0 115 2 211t4 155q-10 12 -22 12q-18 -1 -29.5 10.5t-13.5 25.5t7 26.5t31 14.5t43 3t39 1t31 0.5t19 0.5q18 1 26 -9t7.5 -23t-8 -24t-19.5 -13q-23 -3 -34 -12t-18 -31q0 -1 -0.5 -21t-1 -50.5t-1.5 -68t-1 -74.5v-69.5t1 -51.5q4 -97 30 -141.5t63 -44.5
q18 0 43.5 1t49 14.5t41.5 44.5t21 91q2 39 4.5 86.5t5 97t4.5 97.5t4 86q-6 15 -15 22.5t-30 10.5q-12 1 -19.5 12.5t-8 24t7.5 22.5t27 9q12 0 50.5 -0.5t84.5 -3.5z" />
    <glyph glyph-name="V" unicode="V" horiz-adv-x="504" 
d="M458 667q23 -2 32 -14.5t7 -26.5t-14 -25.5t-30 -10.5q-8 0 -19.5 -5t-22.5 -13q-10 -38 -22.5 -87t-26.5 -102t-27.5 -105.5t-25.5 -97t-21 -77t-13 -44.5q-8 -25 -21.5 -36t-27.5 -10t-25.5 12.5t-16.5 31.5q-3 10 -9.5 41.5t-16 76t-20.5 97.5t-22.5 107t-21.5 104
t-18 88q-12 12 -26 12q-18 -1 -29 10.5t-13 26t7 27t31 14.5q45 3 82 3t49 1q19 1 27 -9t7.5 -23t-8 -24t-19.5 -13q-18 -2 -27 -8t-14 -17l81 -415l117 440q-5 2 -11 4t-14 3q-12 1 -19.5 12.5t-8 24t7.5 23t27 9.5q13 -1 51.5 -1t83.5 -4z" />
    <glyph glyph-name="W" unicode="W" horiz-adv-x="724" 
d="M682 705q23 -2 32 -14.5t7 -27t-13.5 -26t-29.5 -10.5q-11 1 -20 -8q-7 -33 -18 -83.5t-24 -109t-26.5 -120t-25 -115.5t-21 -95t-13.5 -59q-5 -24 -16.5 -35t-24.5 -9.5t-24 14.5t-16 36q-2 9 -8 34.5t-14.5 61t-18.5 77.5t-20 85q-24 100 -52 223q-15 -88 -25.5 -151.5
t-18 -108t-12.5 -74t-9 -51t-7.5 -39l-7.5 -37.5q-6 -28 -18 -39t-24 -9t-22.5 14.5t-13.5 30.5q-2 10 -8.5 42t-15.5 78.5t-20 102l-22 111t-21.5 106.5t-18.5 89q-11 14 -23 13q-18 -1 -29 10.5t-13 26t6.5 27t30.5 14.5q22 1 43 2t39 1t31 0.5t19 0.5q19 1 26.5 -9t7 -23
t-7.5 -24t-19 -13q-20 -3 -30 -8.5t-14.5 -12.5t-5 -14.5t-0.5 -12.5l75 -371q11 78 23 150q5 31 10.5 63.5t11.5 64t12 59.5t11 49q10 42 27 60t34.5 17t32.5 -18.5t23 -44.5q4 -14 10 -39.5t13.5 -58.5t15.5 -70l16 -74q18 -86 39 -187l76 468q-9 5 -22 6q-12 1 -20 12.5
t-8 24t8 22.5t27 9q12 0 50.5 -0.5t83.5 -3.5z" />
    <glyph glyph-name="X" unicode="X" horiz-adv-x="534" 
d="M307 369l169 -303q8 -2 15.5 -3t13.5 -2q12 -2 19.5 -13t8 -24t-7.5 -23t-27 -9q-12 1 -50.5 1t-84.5 3q-23 2 -31.5 14.5t-6.5 27t13.5 26t29.5 10.5q11 0 20 6l-123 206l-117 -183q8 -5 15 -5q18 1 29 -10.5t13 -26t-7 -27t-31 -13.5q-22 -2 -43 -3t-38.5 -1
t-30.5 -0.5t-19 -0.5q-19 -1 -26.5 9t-7 23t7.5 24t19 13t22.5 3t19.5 4l156 295l-121 253q-8 4 -16.5 6.5t-14.5 1.5q-18 -1 -29.5 10.5t-13.5 26t7 27t31 14.5q45 3 82 3t49 1q19 1 27 -9t7.5 -22.5t-8 -24t-19.5 -12.5q-26 -4 -36 -18l108 -192l94 163q-7 6 -27 9
q-12 1 -20 12.5t-8.5 24t7.5 23t28 9.5q12 -1 50.5 -1t83.5 -4q23 -2 32 -14.5t7 -26.5t-13.5 -25.5t-29.5 -10.5q-6 0 -15 -1.5t-20 -5.5z" />
    <glyph glyph-name="Y" unicode="Y" horiz-adv-x="428" 
d="M394 729q19 1 26.5 -9.5t7 -23t-7.5 -24t-19 -12.5q-10 -2 -18 -3.5t-15 -5.5l-118 -281l-7 -283q6 -13 14.5 -19t28.5 -9q12 -2 19.5 -13t8 -24t-7.5 -23t-27 -9q-12 1 -50.5 1t-84.5 4q-23 1 -33.5 13.5t-11 26.5t9 25.5t27.5 10.5q8 -1 18 1.5t15 10.5l6 259l-124 299
q-7 2 -9.5 3t-10.5 2q-12 2 -20 13t-8 24t8 23t27 9q12 -1 37 -1t71 -3q22 -2 32.5 -14.5t10.5 -27t-10.5 -26t-28.5 -10.5q-11 0 -18 -7l74 -180l79 193q-8 8 -18 8q-18 -1 -29 10.5t-13 25.5t7 26.5t31 14.5q45 4 82 4t49 1z" />
    <glyph glyph-name="Z" unicode="Z" horiz-adv-x="414" 
d="M369 718q14 0 25 -4t16 -12.5t4 -21.5t-11 -30q-4 -8 -15 -29.5t-27 -53t-35.5 -70.5l-40.5 -81q14 -8 21 -20.5t2 -27.5q-5 -14 -21.5 -25.5t-43.5 -11.5q-23 -48 -44.5 -92t-38.5 -78q-19 -40 -36 -74l191 3q1 4 2 8.5t2 10.5q1 12 12.5 19t24 7.5t22.5 -7t9 -26.5v-38
q0 -17 -14.5 -31t-38.5 -14h-78.5h-89t-77.5 0.5t-45 1.5q-15 1 -23 8t-10.5 16.5t0.5 20.5t11 19q3 4 16.5 27.5t34 60.5t45 83.5t50.5 95.5q-17 9 -20 19.5t2 25.5q5 19 22.5 33.5t43.5 10.5q23 43 43 82t35 68q18 34 33 63l-217 -5q-4 -9 -5 -20q-2 -12 -13 -19.5t-24 -8
t-23.5 7.5t-9.5 27v51q0 12 9 20.5t24 8.5q30 0 76.5 0.5l93 1t83.5 0.5h48z" />
    <glyph glyph-name="bracketleft" unicode="[" horiz-adv-x="277" 
d="M194 15q-13 -1 -31 0t-34.5 7t-28.5 19.5t-13 38.5q0 4 1 40t2.5 88.5t3.5 114.5t4 119t4 102t3 63q1 20 9.5 33t22 19.5t30.5 8.5t35 1q24 -2 34 -15t9.5 -28.5t-10 -29t-24.5 -15.5q-19 -3 -26 -7q0 -23 -0.5 -58.5t-1 -77.5t-1 -88t-1 -89.5t-1 -83t-0.5 -67.5
q5 -2 10.5 -3t12.5 -3q15 -2 24.5 -16t10 -30t-9.5 -29t-34 -14z" />
    <glyph glyph-name="a" unicode="a" horiz-adv-x="578" 
d="M137 417q-1 -15 -13.5 -23t-27 -7.5t-26.5 10t-12 29.5q-1 23 11 45t39 39t70 26t105 7q53 -2 92 -18.5t63.5 -50.5t35.5 -87.5t9 -128.5q-2 -31 -3.5 -54t-3.5 -40q-2 -19 -4 -34q-1 -17 3 -29q3 -11 11 -20t23 -9t23 -10.5t8.5 -22.5t-6.5 -22.5t-22 -10.5
q-30 0 -53.5 6t-46.5 20q-12 -10 -29.5 -16t-38.5 -9.5t-44 -5t-45 -1.5q-14 0 -36 0.5t-46.5 4t-49.5 12t-45.5 24.5t-33.5 41.5t-14 63.5q-2 56 19 95.5t53 63.5t69.5 34t69.5 9q63 -3 107 -12.5t64 -19.5q0 28 -4.5 56.5t-18 52t-39 38t-67.5 16.5q-25 1 -50 -0.5t-46 -8
t-34.5 -19t-15.5 -34.5z" />
    <glyph glyph-name="b" unicode="b" horiz-adv-x="474" 
d="M291 488q25 -1 52.5 -18.5t49.5 -49.5t36.5 -79t14.5 -107t-18 -103.5t-43.5 -73t-53.5 -46t-48 -22.5q-13 -4 -27.5 -6.5t-30.5 -2t-33 6t-35 17.5q-5 -9 -10 -15t-11.5 -10t-16.5 -6t-25 -1q-4 1 -8 1h-6.5t-5.5 1q-18 2 -26 12.5t-7.5 22.5t7.5 21.5t19 11.5
q16 3 24 7l14 544q-6 2 -19 4q-12 2 -19 13.5t-7.5 24.5t7 23t26.5 9h11q4 0 8 1l36 -1q9 -2 17 -10t9 -29q1 -16 2.5 -36t2.5 -42t1.5 -43.5t0.5 -39.5q13 9 37 16t75 5z" />
    <glyph glyph-name="c" unicode="c" horiz-adv-x="383" 
d="M287 439q-19 30 -51.5 30t-63.5 -23.5t-52.5 -67t-18.5 -99.5q5 -98 41.5 -145.5t88.5 -45.5q32 2 52 13.5t36 30.5q9 11 22 10t23.5 -9.5t13.5 -22.5t-7 -29q-18 -26 -56.5 -40.5t-106.5 -11.5q-36 2 -68 17t-56.5 47t-38.5 83t-14 125q0 71 23.5 115.5t56.5 69.5
t67.5 34.5t57.5 10.5q19 1 39 -4t36.5 -14.5t28.5 -23.5t15 -32t-4 -28t-18.5 -12.5t-24 3t-21.5 19.5z" />
    <glyph glyph-name="d" unicode="d" horiz-adv-x="491" 
d="M428 90q14 -2 24.5 -12t11.5 -22t-10.5 -22t-41.5 -10q-22 1 -36.5 3t-24.5 6t-17.5 10t-14.5 15q-5 -5 -16.5 -11.5t-30.5 -11t-45 -4.5t-59 9q-56 15 -86 54.5t-42 90.5t-9.5 108t13.5 107q8 35 26 59.5t40.5 40t48.5 22.5t50.5 7.5t44.5 -4t32 -12.5q16 -11 28 -5.5
t17 22.5q1 6 1.5 18t0 27.5t-1 34t-0.5 36.5l-10 4t-13 3q-12 2 -19.5 13.5t-8 24t7.5 23t26 9.5q2 0 5 -0.5t8 -0.5h11q18 -1 30 -10.5t19.5 -23t11 -28t3.5 -26.5q0 -8 -0.5 -46.5t-1.5 -91.5t-2.5 -113.5t-2.5 -113.5t-1.5 -91t-0.5 -46q0 -25 9 -35q9 -4 26 -7z" />
    <glyph glyph-name="e" unicode="e" horiz-adv-x="471" 
d="M96 262q-1 -42 10 -72t31 -48.5t49 -28t65 -10.5q18 -1 38 2t38.5 10.5t33.5 18.5t23 26t21 19t23.5 -1.5t14.5 -19t-6 -33.5q-20 -40 -66.5 -65.5t-128.5 -25.5q-47 0 -85.5 16.5t-67 47.5t-44 76t-15.5 101q0 57 11.5 104.5t40 83t76.5 56t120 22.5q43 1 72 -13t47 -37
t27 -50.5t13 -53.5t4 -46.5v-29.5q0 -14 -6 -22.5t-15.5 -13t-21 -6.5t-23.5 -2q-6 0 -21 -0.5t-35.5 -1t-45 -1t-49.5 -0.5q-58 -1 -128 -2z" />
    <glyph glyph-name="f" unicode="f" horiz-adv-x="314" 
d="M266 534q-12 8 -29.5 8.5t-33.5 -10t-27 -32t-11 -57.5q14 1 25.5 1t21.5 1q11 0 21 1h25q13 0 22.5 -9.5t9.5 -22.5q0 -14 -14 -26t-43 -12h-2l-67 -3v-85t-0.5 -96t-0.5 -95.5v-83.5q5 -11 14 -17t27 -8q12 -2 20 -13t8.5 -24t-8 -23t-27.5 -9q-12 1 -50.5 1t-83.5 3
q-23 2 -32 14.5t-7 27t13.5 26t29.5 10.5q13 -1 23 12q1 33 1.5 75.5t1.5 89.5t1.5 96t0.5 97l-37 -1q-29 0 -38 6.5t-9 21.5t12.5 27.5t34.5 13.5q5 1 11 1h12t15 1v9q0 53 12 87t30 53.5t40.5 26.5t45 5t42.5 -11t33 -21t14.5 -25t-5 -23t-18 -13t-24.5 5z" />
    <glyph glyph-name="g" unicode="g" horiz-adv-x="474" 
d="M352 513q3 18 16.5 22.5t28.5 -0.5t27 -17t11 -28q-1 -11 -3.5 -47t-6.5 -87t-8.5 -110.5t-9 -116t-8.5 -105t-6 -76.5q-3 -42 -17 -72t-34.5 -50.5t-45 -32.5t-49.5 -19q-23 -6 -50.5 -6t-55 7.5t-52 22t-42.5 37.5q-15 20 -11.5 35.5t16 23t28.5 5t27 -17.5
q8 -11 17.5 -20.5t24 -14.5t34 -6t48.5 4q40 7 59 34t26.5 61.5t7 70.5t0.5 62q-7 -5 -19.5 -12.5t-32.5 -13t-48.5 -5.5t-67.5 9q-62 14 -91 50t-35 85t7.5 108t36.5 120q22 56 61 83.5t80.5 34t78.5 -4t55 -31.5z" />
    <glyph glyph-name="h" unicode="h" horiz-adv-x="566" 
d="M494 151q18 1 29.5 -10.5t13.5 -26t-7 -27t-31 -13.5q-22 -2 -43 -3t-39 -1t-31 -0.5t-19 -0.5q-18 -1 -26 9t-7.5 23t8 24t19.5 13q25 3 35 17q2 42 3.5 103t-0.5 127q-1 37 -16.5 61.5t-38 37t-49 14t-49 -6.5t-38 -24.5t-16.5 -40.5q-1 -26 -3 -65.5t-4.5 -83.5
t-5 -86.5t-4.5 -73.5q9 -8 28 -9q12 -2 19 -13t7.5 -24t-7.5 -23t-26 -9q-6 0 -18.5 0.5t-30 0.5t-38 0.5t-42.5 2.5t-30.5 14.5t-6.5 27t13 26t29 10.5q8 0 16 6q1 28 3 69.5t4.5 91t5 104t5.5 106.5t5.5 99t5.5 83q-5 1 -9.5 2t-9.5 1q-13 2 -21.5 14.5t-9.5 26.5t7.5 25
t29.5 10h25q31 -2 50 -18t19 -49q0 -17 1 -28.5t1.5 -27t-0.5 -39.5t-4 -65q13 21 37.5 34t54.5 16.5t61.5 -2.5t57 -21.5t42 -41.5t17.5 -62q1 -31 2 -69t2 -77.5t2 -77.5t1 -69q9 -11 21 -11z" />
    <glyph glyph-name="i" unicode="i" horiz-adv-x="256" 
d="M197 42q12 -2 19 -13t8 -24t-7 -23t-26 -9q-12 1 -49 1t-80 3q-22 2 -30.5 14.5t-7 27t12.5 26t29 10.5q12 -1 24 14l8 252q-6 2 -17 4q-12 2 -20 14.5t-9 26.5t6.5 25t25.5 10q1 -1 4 -1h6q4 0 7 -1q26 -5 44 -27.5t18 -55.5q0 -10 -0.5 -39t-2 -65.5t-3 -74t-2.5 -65.5
q6 -14 14.5 -21t27.5 -9zM122 570q23 -2 34 -12t13 -21.5t-3.5 -22.5t-14.5 -15q-17 -9 -40 -7.5t-37 19.5q-6 9 -4.5 19.5t8.5 19.5t18.5 15t25.5 5z" />
    <glyph glyph-name="j" unicode="j" horiz-adv-x="401" 
d="M252 369q20 -4 37 -16.5t17 -44.5v-38.5t-0.5 -64t-1 -79t-2 -84.5t-4 -79t-5.5 -63q-10 -76 -46 -104t-98 -24q-27 1 -45.5 4.5t-33.5 9.5t-28 14t-28 20q-14 11 -14.5 26t8 25.5t24 12.5t33.5 -13q9 -7 24.5 -15t34 -12.5t37.5 -3.5t35 11t26 31t11 58q0 23 1.5 68
t3.5 97t3.5 103.5t3.5 87.5q-4 2 -8.5 3t-10.5 2q-19 3 -30 14.5t-11 24.5t11 22.5t37 8.5q2 0 5 -0.5t6 -0.5q4 -1 8 -1zM269 560q23 -2 34 -12t13 -21.5t-3 -22.5t-14 -15q-18 -9 -40.5 -7.5t-36.5 19.5q-7 9 -5.5 19.5t9 19.5t19 15t24.5 5z" />
    <glyph glyph-name="k" unicode="k" horiz-adv-x="432" 
d="M389 89q18 1 29 -10.5t13 -26t-7 -27t-31 -13.5q-45 -4 -73 -4t-40 -1q-19 -1 -27 9t-7.5 23t8 24t19.5 13h4l-106 197l-2 -153q5 -9 13.5 -14t24.5 -7q12 -2 19 -13t7.5 -24t-7.5 -23t-26 -9q-12 1 -48.5 1t-80.5 3q-22 2 -30.5 14.5t-6.5 27t13 26t28 10.5q11 0 18 7
l11 536q-4 2 -8.5 3t-11.5 2q-12 1 -19 12.5t-7.5 24.5t7 23.5t26.5 9.5q1 0 8.5 0.5t16 1t16.5 0t12 -1.5q13 -5 23 -22t10 -37v-18.5t-0.5 -32.5t-1 -41.5t-0.5 -44.5q-1 -53 -1 -117l69 106q-15 3 -23.5 15t-9 25t8.5 24t29 13q22 1 43 2t39 1t31 0.5t19 0.5
q18 1 25 -10.5t5 -25.5t-10.5 -26.5t-20.5 -13.5q-14 -2 -28 -3.5t-27 -6.5l-124 -183l159 -241q22 -5 30 -5z" />
    <glyph glyph-name="l" unicode="l" horiz-adv-x="257" 
d="M185 65q18 1 29.5 -10.5t13.5 -26t-7 -27t-31 -13.5q-22 -2 -43 -3t-39 -1t-30.5 -0.5t-18.5 -0.5q-19 -1 -27 9t-7.5 23t8 24t19.5 13q12 1 18 4t9.5 8.5t5.5 13t5 18.5q1 2 1 2.5t1 2.5l3 509q-4 2 -8.5 3t-10.5 2q-12 2 -19.5 13.5t-8 24.5t7.5 23t27 9h31
q20 -2 36.5 -21t16.5 -54q0 -9 -0.5 -41t-1 -78t-1.5 -101.5t-1.5 -111.5t-0.5 -108v-91q9 -14 23 -14z" />
    <glyph glyph-name="m" unicode="m" horiz-adv-x="628" 
d="M553 38q18 1 29 -10.5t13 -26t-7 -27t-31 -13.5q-8 -1 -15 -1.5t-14 -0.5v-1h-6q-34 -2 -60 -1.5t-36 -0.5q-19 -1 -26.5 9t-7 23t7.5 24t19 13q22 3 30.5 11t14.5 26q2 47 2.5 100.5t2.5 96.5q1 48 -11 76.5t-28 36t-30 -6.5t-17 -53q-2 -32 -4.5 -77t-4.5 -87
q-3 -49 -4 -102q-2 -14 -9.5 -28.5t-31.5 -14.5q-17 0 -24 14t-7 31q3 43 5 86q2 37 2 80.5t-2 82.5q-3 50 -25 69t-48 14t-47 -30t-21 -62q0 -16 -0.5 -46.5t-1.5 -66.5t-2.5 -74.5t-2.5 -71.5q6 -14 14.5 -20.5t27.5 -9.5q12 -2 19.5 -13t8 -24t-7.5 -23t-26 -9
q-12 1 -48.5 1t-80.5 4q-22 1 -30.5 14t-7 27t12.5 25.5t29 10.5q10 0 17 6.5t13 17.5l-4 340q-6 2 -17 4q-12 2 -19.5 14.5t-8 26.5t7 25t26.5 10q1 0 12 1t25 -1.5t27.5 -10t19.5 -24.5q11 15 30.5 24.5t43 10t47.5 -9t44 -31.5q31 39 67 43.5t67 -15.5t51 -62t19 -96
q-1 -23 -1.5 -52.5t-1 -60.5t-1 -62.5t-1.5 -58.5q11 -13 24 -13z" />
    <glyph glyph-name="n" unicode="n" horiz-adv-x="471" 
d="M401 100q18 1 29 -10.5t13 -26t-6.5 -27t-30.5 -13.5q-22 -2 -43 -3t-39 -1t-31 -0.5t-19 -0.5q-19 -1 -26.5 9t-7 23t8 24t19.5 13q22 3 31 12q-2 41 -3.5 103t-0.5 132q0 32 -9 50.5t-23.5 26t-31 5t-31 -13t-24.5 -27.5t-10 -38q0 -17 -1.5 -46t-3 -63t-3.5 -69.5
t-4 -65.5q5 -15 11.5 -23t26.5 -10q12 -2 19.5 -13t8 -24t-7.5 -23t-26 -9q-12 1 -48.5 1t-80.5 3q-22 2 -30.5 14.5t-7 27t12.5 26t29 10.5q10 -1 17 6t13 17l8 333q-5 2 -10.5 2t-13.5 2q-12 1 -19.5 15t-7.5 29.5t8 28t27 11.5h13.5t27 -4t27 -15t15.5 -34q16 20 49 23
t66 -9t59 -39t29 -67q2 -26 3.5 -59t2.5 -68t2 -69.5t1 -62.5q10 -13 23 -13z" />
    <glyph glyph-name="o" unicode="o" horiz-adv-x="419" 
d="M247 502q46 -9 73.5 -29t42 -52.5t19.5 -77t7 -101.5q2 -58 -17 -104.5t-51.5 -78.5t-75 -48t-86.5 -11q-44 4 -71.5 31.5t-41.5 69t-16 92.5t5 102t23.5 93t43 70t63 40.5t82.5 3.5z" />
    <glyph glyph-name="p" unicode="p" horiz-adv-x="476" 
d="M183 500q46 39 94 39.5t86.5 -30.5t62.5 -90.5t23 -140.5q-2 -106 -28 -169.5t-73 -72.5q-20 -4 -44 -3t-47.5 7t-44 17.5t-32.5 29.5l-14 -273q8 -10 32 -14q12 -2 19 -13t7.5 -23.5t-7.5 -22.5t-26 -9h-18.5t-30 0.5t-38 1t-42.5 2.5t-30.5 14.5t-6.5 27t13 26t29 10.5
q9 -1 17 7l15 646q-4 1 -8.5 2t-9.5 2q-12 1 -19 13.5t-7.5 26.5t7.5 26t26 13h32t29.5 -4.5t22.5 -15t11 -30.5z" />
    <glyph glyph-name="q" unicode="q" horiz-adv-x="467" 
d="M389 -302q12 -2 19 -13t7.5 -24t-7.5 -23t-26 -9q-12 1 -48.5 1t-80.5 4q-22 1 -30.5 13.5t-6.5 27t13 26t28 10.5q8 0 16 6q0 28 -1 73t-1.5 93t-0.5 91t1 66q-4 -9 -17.5 -20.5t-34 -20.5t-48 -12.5t-59.5 4.5q-41 9 -60 43t-24 82.5t0.5 107t14.5 117.5q9 60 42.5 89
t73.5 36t77 -3.5t54 -29.5v2q0 5 1 9q3 20 24 30t56 7q18 -2 27.5 -12.5t11 -23t-4 -23t-17.5 -12.5q-10 -2 -14 -3q-1 -34 -2 -90.5t-2.5 -124t-3.5 -140.5t-3.5 -139t-2.5 -120t-2 -83q9 -9 31 -12z" />
    <glyph glyph-name="r" unicode="r" horiz-adv-x="446" 
d="M375 511q20 0 30.5 -16.5t10.5 -61.5t-13.5 -60t-33.5 -12q-25 5 -34 18t-16 29q-9 22 -35 30.5t-53.5 3t-49 -24.5t-21.5 -50q0 -20 -0.5 -52.5t-1.5 -69t-2.5 -74.5t-2.5 -69q5 -12 14 -18.5t27 -8.5q12 -2 19 -13t7.5 -24t-7.5 -23t-26 -9q-6 0 -18.5 0.5t-30 0.5
t-38 1t-42.5 3q-22 1 -30.5 13.5t-6.5 27t13 26t29 10.5q9 0 16.5 6.5t12.5 17.5l2 324q-9 4 -20 5q-12 2 -19.5 14t-8 26t7 25t26.5 10q2 0 5 -0.5t7 -0.5h9q12 1 23 0.5t20 -4t14.5 -10.5t6.5 -19q20 17 43 22.5t45.5 3t44 -11t38.5 -20.5q3 15 13 25t26 10z" />
    <glyph glyph-name="s" unicode="s" horiz-adv-x="480" 
d="M191 417q-18 -11 -27 -32.5t-7.5 -44.5t14 -42t38.5 -26q25 -7 49 -14t45 -18t39 -26.5t32 -38.5q15 -23 12 -52.5t-17.5 -57t-37.5 -49t-48 -27.5q-38 -10 -78.5 -2.5t-72.5 22.5q-2 -35 -11.5 -46t-29.5 -11q-23 0 -43.5 16t-18.5 49l3 45q0 20 10.5 35t30.5 15
q12 0 25 -8t21 -25q7 -11 30.5 -19.5t56.5 -11.5q40 -4 64 5t34 25.5t7 37.5t-15.5 40.5t-34 34t-49.5 19.5q-33 5 -58.5 22t-40 43.5t-17.5 62t9 79.5q10 35 34.5 50.5t54 17.5t60.5 -5.5t55 -18.5v2q0 20 11 35t31 15q10 0 20.5 -5.5t19 -16.5t14 -27.5t5.5 -38.5
q0 -44 -10 -57.5t-32 -13.5q-14 0 -29.5 7t-24.5 22q-5 10 -19 20.5t-31.5 16.5t-37 6.5t-35.5 -9.5z" />
    <glyph glyph-name="t" unicode="t" horiz-adv-x="344" 
d="M286 493q22 0 33.5 -12.5t11.5 -28t-12.5 -29t-37.5 -14.5q-12 -1 -28.5 -1t-36.5 -1q-2 -44 -4 -91t-4 -91t-3.5 -84t-2.5 -71q2 -1 9 -1q18 1 29 -10.5t13 -26t-7 -27t-31 -14.5q-45 -3 -77.5 -3.5t-44.5 -0.5q-19 -1 -27 9t-7.5 22.5t8 23.5t19.5 13q19 3 29 10
l20 341q-18 -1 -36 -1h-35q-30 0 -39.5 13.5t-4.5 30.5t21 30.5t36 13.5h64l9 151q0 20 14 28.5t29.5 6.5t27.5 -14.5t9 -33.5q-2 -12 -4.5 -49t-5.5 -89h66v0z" />
    <glyph glyph-name="u" unicode="u" horiz-adv-x="536" 
d="M178 479q-2 -61 -3.5 -115t-2.5 -119q-1 -40 2 -67t11.5 -43t24.5 -23t41 -7q31 0 51.5 12.5t32.5 32.5t18 45t8 51q2 25 4 55.5t3 61.5t2 60t1 52q0 25 14 37t30 11t29.5 -13t13.5 -34q0 -15 -1.5 -43t-4 -62.5t-5.5 -72.5t-5.5 -73t-4 -64t-1.5 -45q23 0 36 -12.5
t12.5 -28t-17 -29t-53.5 -15.5q-14 -1 -25 3.5t-18.5 12t-11 15.5t-3.5 15q-12 -18 -39 -29.5t-83 -11.5q-42 0 -69 11.5t-42.5 32t-21.5 49t-6 64.5q0 35 1 73.5t2 75.5t2 70.5t1 57.5t12 35.5t26.5 12t26.5 -9.5t12 -29z" />
    <glyph glyph-name="v" unicode="v" horiz-adv-x="456" 
d="M416 548q21 -3 29 -15.5t5.5 -27t-14 -25.5t-28.5 -9q-16 2 -39 -15q-9 -30 -21.5 -68t-25.5 -79.5t-27 -84t-26 -80.5q-19 -59 -40 -75t-40 -5.5t-33.5 39t-21.5 59.5q-4 20 -11 53t-14.5 71.5t-15.5 78.5t-14 73q-15 20 -33 20q-18 -1 -29 10.5t-13 25.5t7 26.5
t31 14.5q45 4 82 4t49 1q19 1 26.5 -9.5t7 -23t-7.5 -24t-19 -12.5q-17 -3 -28 -9l53 -258l101 274q-9 9 -29 12q-12 2 -18.5 13.5t-6.5 24.5t8.5 22.5t26.5 8.5q12 -2 48.5 -4t80.5 -7z" />
    <glyph glyph-name="w" unicode="w" horiz-adv-x="596" 
d="M557 501q21 -2 29.5 -14.5t7 -27t-12.5 -26t-29 -10.5q-7 0 -15 -5q-8 -34 -20.5 -84.5t-26 -105.5t-27.5 -107.5t-25 -91.5q-15 -51 -30.5 -61.5t-30 3t-26.5 42t-19 55.5q-7 26 -16.5 68t-18.5 81q-11 46 -22 96q-9 -45 -19 -89q-8 -38 -18.5 -81t-20.5 -78t-23.5 -47
t-26 -7t-23.5 24t-16 48q-3 18 -9 51.5t-13 72.5t-15 80t-14 76q-5 13 -13.5 22t-19.5 8q-18 -1 -29 10.5t-13 25.5t6.5 26.5t30.5 14.5t43 3t39 1t31 0.5t19 0.5q18 1 26 -9t7.5 -23t-8 -24t-19.5 -13q-24 -3 -34 -16l34 -232q8 33 18 70q8 31 17.5 70t17.5 77t20 55.5
t25 17t25 -17t20 -46.5t20 -77.5t23 -92.5q13 -53 27 -109l61 320q-9 8 -30 11q-12 2 -19 13t-7.5 24t7.5 23t26 9q6 0 18.5 -0.5t30 -0.5t38 -1t42.5 -2z" />
    <glyph glyph-name="x" unicode="x" horiz-adv-x="421" 
d="M361 37q18 1 29.5 -10.5t13.5 -26t-7 -27t-31 -14.5q-45 -3 -73.5 -3t-40.5 -1q-19 -1 -26.5 9t-7 23t7.5 24t19 13q16 1 20 7l-67 122l-56 -108q9 -4 18 -5q12 -2 19 -13t7.5 -23.5t-7.5 -22.5t-26 -9q-12 1 -39.5 1t-71.5 3q-22 2 -30.5 14.5t-7 27t12.5 26t29 10.5
q8 -1 16 3t16 11l82 170l-57 159q-16 13 -31 13q-18 -1 -29 10.5t-13 25.5t7 26.5t31 14.5q45 4 69 4t35 1q19 1 27 -9t7.5 -23t-8 -24t-19.5 -13q-6 0 -10 -2l38 -130l75 151q-8 2 -13 2q-12 2 -19 13t-7.5 24t7.5 23t26 9q11 -1 34.5 -1t67.5 -3q22 -2 30.5 -14.5t6.5 -27
t-13 -26t-28 -10.5q-6 1 -13 -1t-15 -5l-92 -201l86 -180q10 -7 21 -7z" />
    <glyph glyph-name="y" unicode="y" horiz-adv-x="523" 
d="M437 531q18 1 26 -9t7.5 -22.5t-8 -24t-19.5 -12.5q-10 -2 -14 -3v-102t-1.5 -127.5t-6 -137.5t-12 -132t-19 -110.5t-27.5 -73.5q-20 -32 -45.5 -47.5t-52.5 -19.5t-53.5 1.5t-49.5 15t-40.5 21t-26.5 20.5q-8 7 -5.5 20.5t13.5 23.5t28.5 12t39.5 -12q44 -29 75 -23.5
t51 36.5t29 84t8 121q-73 -3 -119.5 8.5t-73 33t-36.5 50t-10 59.5v280q0 41 13 57.5t28 15.5t28 -16t13 -36q-2 -36 -3 -77q-2 -35 -2.5 -82t-0.5 -101q0 -53 12 -77.5t34 -33t52.5 -7.5t67.5 0l16 353q-2 31 6 50.5t32 24.5q16 0 30 -0.5t16 -0.5z" />
    <glyph glyph-name="z" unicode="z" horiz-adv-x="409" 
d="M319 157q1 17 12 28t23 11.5t21.5 -10.5t8.5 -38q0 -2 -0.5 -20t-1.5 -37q-1 -17 -14 -30t-33 -15q-25 -2 -58 -5t-66 -5t-61 -4t-44 -3q-22 -1 -32.5 6.5t-12 20.5t5 29.5t18.5 34.5q10 14 29.5 51t42.5 83q-21 13 -24.5 24.5t3.5 28.5q4 8 10.5 16t15 13t18.5 7.5
t22 0.5q12 26 23 48t19 39q10 19 18 37l-169 11q-2 -8 -4 -23q-2 -16 -13 -25.5t-24 -10.5t-23.5 9.5t-9.5 35.5q0 2 0.5 13t0.5 24q-1 17 17.5 27t41.5 12q25 1 55.5 1.5t59 1t52 0.5t34.5 1q17 1 30.5 -6.5t21.5 -20t9.5 -29t-5.5 -32.5q-3 -7 -9 -21.5t-14.5 -34t-19 -43
t-21.5 -47.5q13 -9 18.5 -22.5t-1.5 -28.5q-5 -12 -19 -20.5t-34 -9.5q-22 -46 -34 -74q-7 -17 -13 -30l124 -2q5 14 6 33z" />
    <glyph glyph-name="A" unicode="A" horiz-adv-x="494" 
d="M447 81q18 1 29 -10.5t13 -26t-6.5 -27t-30.5 -14.5t-43 -2.5t-39 -0.5t-31 -0.5t-19 -0.5q-19 -1 -26.5 9t-7 22.5t8 23.5t19.5 13q17 3 25.5 8t13.5 16q-7 20 -13.5 41t-8.5 26q-4 11 -14.5 14.5t-16.5 3.5q-3 0 -21 0.5t-39 1.5t-39.5 1.5t-22.5 0.5q-8 0 -16.5 -5.5
t-10.5 -16.5q-1 -5 -1 -7.5v-6t-0.5 -11t-1.5 -20.5q5 -11 14 -17t28 -9q12 -2 19.5 -13t8 -23.5t-7.5 -22.5t-27 -9q-12 0 -51 0.5t-84 3.5q-23 2 -31.5 14.5t-6.5 27t13.5 26t29.5 10.5q15 -1 27 17q3 13 11.5 48.5t19.5 83t23 102t23.5 106t20.5 94t13 65.5q7 37 18.5 60
t25.5 25t28 -19.5t26 -72.5q6 -26 14.5 -61.5t19 -76t21.5 -84t22 -84.5q26 -97 53 -203q5 -9 12.5 -15t15.5 -5z" />
    <glyph glyph-name="B" unicode="B" horiz-adv-x="467" 
d="M322 341q35 -6 58 -30.5t36 -56.5t17.5 -66.5t1.5 -60.5q-3 -31 -20 -53.5t-44 -37t-61.5 -23.5t-71 -13.5t-72.5 -6t-67 -1.5h-16q-18 -1 -26 9t-7.5 22.5t8 23.5t19.5 13q13 2 20 6l-11 540q-8 6 -23 7q-12 2 -19.5 13.5t-8 24.5t7.5 23t27 9h19q106 1 167 -19.5
t91.5 -49t40 -58t12.5 -46.5q4 -20 4.5 -45t-6.5 -49t-25 -44.5t-51 -30.5z" />
    <glyph glyph-name="D" unicode="D" horiz-adv-x="438" 
d="M407 348q2 -86 -26 -145.5t-73.5 -97t-102 -55t-110.5 -18.5v-1h-20q-18 -1 -26 9t-7.5 22.5t8 23.5t19.5 13q9 1 18 5l12 546q-5 1 -12 3q-12 1 -19 12.5t-7.5 24.5t7 23.5t26.5 9.5h12h5q1 0 1 -0.5t1 -0.5q68 0 121.5 -26t91 -74.5t58.5 -118t23 -155.5z" />
    <glyph glyph-name="C" unicode="C" horiz-adv-x="419" 
d="M219 593q-29 1 -49.5 -20.5t-35 -59.5t-23.5 -89.5t-14 -109.5q-6 -68 1.5 -114t23 -74.5t36.5 -41.5t42 -15t42.5 2t38.5 14.5t27 27t9 39.5q-2 34 7 51.5t20.5 19t22.5 -13t13 -44.5q3 -43 -9.5 -74.5t-36 -51.5t-56.5 -28.5t-70 -4.5q-39 4 -74.5 17.5t-60.5 52
t-36.5 109t-1.5 187.5q9 110 37 173t65 90t79 23t80 -27q2 17 12.5 28t27.5 11q20 0 39.5 -21.5t19.5 -66.5t-9.5 -58t-31.5 -13q-20 0 -39.5 13t-22.5 39q-11 11 -27.5 20t-45.5 10z" />
    <glyph glyph-name="one" unicode="1" horiz-adv-x="287" 
d="M220 59q12 -2 19 -13t7.5 -23.5t-7.5 -22.5t-26 -9h-18.5t-30 0.5t-38 1t-42.5 2.5t-30.5 14.5t-6.5 27t13 26t29 10.5q11 -1 21 10l-10 465h-12q-34 -2 -47 10.5t-11.5 30t14.5 36t32 28.5q13 8 27 12t26 5q13 1 24 -6.5t18.5 -20t12 -27.5t4.5 -28q0 -7 -0.5 -35.5
t-1.5 -70.5t-2 -93.5t-2 -105t-2 -104t-2 -90.5q5 -14 14 -20.5t28 -9.5z" />
    <glyph glyph-name="two" unicode="2" horiz-adv-x="526" 
d="M426 108q23 0 35 -15.5t10 -48.5l-3 -45q0 -20 -11 -35t-31 -15q-73 -2 -135 -4q-27 -1 -54 -1.5t-50.5 -1t-42 -0.5h-28.5q-20 0 -32.5 6.5t-20 17t-10 23.5t-2.5 27q0 13 7 23t18 18t23 14.5t23 14.5q20 15 56 38t73 57.5t68 81t42 107.5q10 60 -7 95.5t-48 52.5
t-68 19t-66 -5q-1 -38 -11 -50t-30 -12q-23 0 -43.5 16t-18.5 49l3 44q0 20 10.5 35.5t30.5 15.5q23 0 41 -24q27 15 66.5 23t80.5 1t78.5 -34t61.5 -82q17 -41 17 -87t-13.5 -92.5t-39.5 -91.5t-60 -84.5t-74.5 -72t-83.5 -53.5h189v5q0 44 14 57t36 13z" />
    <glyph glyph-name="three" unicode="3" horiz-adv-x="469" 
d="M266 346q26 -8 56.5 -22t55 -39.5t37 -66t2.5 -100.5q-6 -37 -26.5 -61.5t-49.5 -40t-62 -23t-63.5 -9.5t-56 -0.5t-37.5 4.5q-14 -16 -31 -16q-18 0 -28 15.5t-10 35.5l-3 44q-1 16 4 28.5t13.5 20.5t19 12t21.5 4q19 0 28 -13t10 -54q18 -3 46 -5.5t57 1.5t54 17.5
t39 41.5q18 38 5 68t-40.5 52t-61 35t-55.5 18q-22 4 -29.5 19.5t-4 32.5t17 31.5t33.5 16.5q40 5 69 36.5t32 73.5q3 31 -11.5 49t-38 25t-51 6t-51.5 -7q0 -41 -9.5 -53.5t-31.5 -12.5t-43 16t-19 49l3 45q0 20 10.5 35t30.5 15q12 0 24 -7.5t21 -22.5q22 9 49.5 13
t57 0.5t57 -15t49.5 -32.5q24 -24 29 -66t-7.5 -83t-40.5 -73t-70 -38z" />
    <glyph glyph-name="four" unicode="4" horiz-adv-x="465" 
d="M358 88q19 1 30.5 -11t14 -27t-7 -28.5t-32.5 -14.5q-47 -4 -86 -4t-52 -1q-20 -1 -28 9.5t-7.5 24t8 25t20.5 13.5q17 2 31 7.5t19 16.5v41q0 25 -14.5 40.5t-31.5 15.5h-49.5t-70.5 2q-22 1 -36 13t-20.5 29t-7.5 35.5t2 32.5t14.5 36t26 45.5t29.5 46.5t25 40
q16 28 33.5 56t33.5 53.5t31 48t27 38.5t28 25.5t30.5 9.5t24.5 -10.5t9 -34.5q0 -9 -0.5 -34.5t-1 -59t-1 -71t-1 -70.5t-0.5 -58v-33q0 -24 5 -33t23 -9q19 0 31 -15.5t13 -33.5t-10.5 -32.5t-38.5 -13.5q-11 1 -16 -4.5t-7.5 -14t-3 -19.5t-1.5 -21q-1 -6 -1 -18.5v-26.5
q7 -6 16 -6z" />
    <glyph glyph-name="five" unicode="5" horiz-adv-x="477" 
d="M432 563q1 -14 1 -27v-15q1 -18 -9.5 -26t-24 -7.5t-25.5 8t-13 19.5q-2 10 -3 14q-27 0 -58 0.5t-58.5 1t-47.5 1t-25 0.5q-17 0 -28.5 -6.5t-11.5 -19.5v-76q0 -20 5.5 -32.5t38.5 -15.5q11 -1 34 -3t51 -8.5t57 -19.5t53 -35.5t39 -57t14 -84.5q-1 -53 -22 -90.5
t-53 -62t-70.5 -38t-75.5 -20t-67 -7t-44 0.5q-22 1 -32 14.5t-10 29t10 28t28 12.5q12 0 34.5 1t50 5t56 11.5t52 22t39 36t16.5 52.5t-13 53t-36.5 37.5t-50 24.5t-52.5 14t-44 6.5t-26 1.5q-10 0 -20 6t-18.5 16t-13.5 23t-5 26t-1 37t-1.5 49t-1.5 48t-1 35q0 13 8 25
t19 21t23.5 14.5t20.5 5.5q5 0 25.5 -0.5t48 -1.5t59 -2t59 -2t48 -2t26.5 -1q17 -2 31 -14.5t15 -25.5z" />
    <glyph glyph-name="six" unicode="6" horiz-adv-x="510" 
d="M400 581q-23 -14 -61.5 -37t-77 -56t-70 -77t-39.5 -101q47 33 99 42t97 -6t77.5 -53t40.5 -98q7 -49 -6.5 -93t-43 -76t-73.5 -48t-98 -9q-51 7 -92 32.5t-69 64t-41 86.5t-6 101q5 43 26.5 99t60 111t93 102t125.5 73q27 10 44 5.5t24.5 -16t5 -25t-15.5 -21.5z" />
    <glyph glyph-name="seven" unicode="7" horiz-adv-x="473" 
d="M389 632q8 0 17 -4t16 -11.5t10.5 -17t0.5 -20.5q-1 -5 -7.5 -26t-17 -52.5t-23.5 -72t-27 -84.5q17 -4 29 -13.5t12 -25.5t-18 -32.5t-53 -23.5q-15 -47 -29 -90t-24.5 -77t-17.5 -56t-8 -26q-5 -16 -20 -25.5t-38 -9.5h-12q-8 0 -13 5t-7 12.5t-1 16.5t4 16q1 4 8.5 25
t18 53t24 72.5t27.5 83.5q-22 5 -29 14t-7 24q0 21 17 41t53 21q20 60 35.5 108t23.5 72q3 8 -5 16.5t-16 10.5h-23t-51 0.5t-64 1t-64 0.5q-2 -5 -3 -10t-2 -12q-2 -14 -13 -22.5t-24 -9t-23.5 8.5t-9.5 31q0 2 1 9t2.5 15.5t3 16.5t2.5 12q3 14 16 26t31 12h29t54.5 -0.5
t67 -1t66.5 -1t53.5 -0.5h27.5z" />
    <glyph glyph-name="eight" unicode="8" horiz-adv-x="506" 
d="M353 349q50 -19 79 -58.5t25 -106.5q-2 -43 -20 -82t-46.5 -68.5t-66.5 -47t-81 -17.5q-59 1 -99.5 15t-66.5 39.5t-37.5 62t-11.5 83.5q0 31 11 61.5t29 56t42.5 45.5t51.5 32q-29 23 -50.5 52t-21.5 68q0 34 14.5 65.5t39.5 55.5t57.5 38.5t67.5 14.5t67.5 -13
t57 -35.5t39.5 -52.5t15 -64q0 -47 -28.5 -84.5t-66.5 -59.5z" />
    <glyph glyph-name="nine" unicode="9" horiz-adv-x="449" 
d="M101 74q19 18 50 43t60.5 56.5t52 71.5t25.5 88q-33 -5 -70.5 -4t-71 12.5t-60 34.5t-37.5 63q-14 48 -10.5 95t24 85t58.5 63.5t92 30.5q55 4 92 -12t58.5 -49t30 -80.5t8.5 -105.5q0 -44 -12.5 -103t-40 -120t-72 -118t-109.5 -96q-24 -15 -42 -13.5t-27.5 11t-9.5 23
t11 24.5z" />
    <glyph glyph-name="zero" unicode="0" horiz-adv-x="530" 
d="M284 675q41 -3 76 -25t60.5 -59t41.5 -88.5t19 -113.5q2 -38 2.5 -81.5t-4.5 -87t-16.5 -83t-33.5 -70t-56 -49t-83 -19.5q-74 -1 -119.5 19t-71 59t-35.5 97.5t-13 134.5t8.5 145t39 120t73.5 78.5t112 22.5z" />
    <glyph glyph-name="exclam" unicode="!" horiz-adv-x="198" 
d="M149 612q0 -3 -1 -31t-3 -68.5t-3.5 -89t-3.5 -92.5t-4 -78.5t-3 -47.5q-2 -20 -14 -29t-26.5 -6.5t-26.5 14.5t-13 34v34.5t0.5 67.5t1.5 84.5t1.5 87.5t1 74.5t0.5 45.5q0 20 15 29t32.5 8t32 -10.5t13.5 -26.5zM85 85q23 -3 34 -14.5t13 -25.5t-3.5 -27t-14.5 -18
q-17 -11 -40 -9t-36 23q-7 11 -5.5 24t9 24t19 17.5t24.5 5.5z" />
    <glyph glyph-name="question" unicode="?" horiz-adv-x="380" 
d="M169 96q23 -3 34 -14.5t13 -25t-3 -26.5t-14 -19q-18 -11 -40.5 -9t-36.5 24q-7 10 -5.5 23t9 24t19 17.5t24.5 5.5zM60 612q21 15 51.5 22t63 7.5t62 -5.5t47.5 -19q27 -19 40 -50.5t14.5 -65.5t-7 -66.5t-23.5 -54.5q-21 -31 -38.5 -47t-30 -30.5t-20 -33.5t-10.5 -55
q-2 -18 -14.5 -26.5t-27 -7t-26 11.5t-10.5 28q0 11 1.5 26.5t6 33t14 35t27.5 31.5q16 13 35 30t32.5 38.5t17 49t-11.5 60.5q-8 18 -29 27t-45.5 10t-48.5 -4.5t-39 -15.5t-28 -4.5t-19 18.5t-3.5 29t19.5 28z" />
    <glyph glyph-name="comma" unicode="," horiz-adv-x="194" 
d="M130 -25q-13 -21 -26 -25.5t-21.5 0t-10 15.5t9.5 21q-16 5 -29 17.5t-10 32.5q2 12 10.5 22t20 15.5t24 5t23.5 -8.5q12 -9 17 -21.5t5 -25.5t-3.5 -25.5t-9.5 -22.5z" />
    <glyph glyph-name="period" unicode="." horiz-adv-x="186" 
d="M97 89q23 -3 34 -14.5t13 -25t-3.5 -26.5t-14.5 -18q-17 -11 -40 -9t-36 23q-7 10 -5.5 23t9 24t19 17.5t24.5 5.5z" />
    <glyph glyph-name="quotesingle" unicode="'" horiz-adv-x="194" 
d="M140 586q0 -20 -14 -35.5t-31 -15.5q-18 0 -31.5 22t-13.5 67q0 44 8.5 57.5t28.5 13.5t38.5 -16t16.5 -49z" />
    <glyph glyph-name="at" unicode="@" horiz-adv-x="882" 
d="M506 761q80 -3 140 -42.5t100.5 -99t61 -132t21 -142.5t-19 -129t-59.5 -92q-6 -5 -16.5 -12t-20.5 -13t-19 -10.5t-12 -4.5h-6q-23 -5 -42 0t-33 16q-5 2 -9.5 4.5t-9.5 5.5q-12 -10 -29.5 -16t-38.5 -9.5t-44 -5t-45 -1.5q-14 0 -36 0.5t-47 4t-49.5 12t-45 24.5
t-34 41.5t-14.5 63.5q-2 56 19 95.5t53.5 63.5t69.5 34.5t69 8.5q64 -3 108 -12.5t64 -19.5q0 28 -4.5 56.5t-18 52t-39 38t-67.5 16.5q-25 1 -50 -0.5t-46 -8t-35 -19t-15 -34.5q-1 -15 -13.5 -23t-27 -7.5t-26.5 10t-13 29.5q0 23 12 45t39 39t70 26t105 7
q53 -2 91.5 -18.5t63.5 -50.5t35.5 -87.5t8.5 -128.5q-1 -31 -2.5 -54t-3.5 -40q-2 -19 -4 -34v-9q0 -11 4 -20l7 -6t18.5 -6.5t27 10.5t33.5 44q12 23 17 64t0.5 89t-19.5 98.5t-42.5 93.5t-69 73t-98.5 38q-101 13 -175 -8t-124 -64.5t-77.5 -103t-34.5 -122.5t5.5 -123.5
t41.5 -105.5q45 -70 100.5 -102.5t110 -43t103.5 -6t81 9.5q22 4 37.5 -6t21.5 -24.5t-0.5 -29t-27.5 -19.5q-65 -16 -131.5 -13.5t-127.5 21.5t-113.5 53t-91 81t-60.5 107t-21 131q2 128 36 216t95.5 142t147 76t190.5 18z" />
    <glyph glyph-name="numbersign" unicode="#" horiz-adv-x="708" 
d="M603 411q-7 0 -36.5 -0.5t-72.5 -1.5q-5 -27 -11 -54.5t-12 -55.5h58t36 -1q24 -1 34 -11.5t8 -23t-16 -23.5t-39 -12q-7 -1 -33 -1.5t-64 -0.5q-8 -38 -14.5 -67.5t-8.5 -42.5q-5 -24 -20 -32t-30 -4t-25 18t-5 34q1 4 7 29t14 63q-30 -1 -61.5 -1t-61.5 -1
q-11 -37 -19.5 -64.5t-13.5 -39.5q-8 -23 -21 -30t-24 -1.5t-17.5 22.5t-0.5 43q2 5 6.5 23.5t12.5 45.5q-29 -1 -50.5 -1t-32.5 -1q-23 0 -34 12.5t-11 28t11 28.5t32 13h108q7 25 14.5 51.5t15.5 52.5q-29 -1 -51 -1.5t-33 -0.5q-24 -1 -35 12t-10.5 28.5t11.5 28.5t31 13
q4 0 34 -0.5t75 -0.5q13 44 22 77.5t13 47.5q6 23 21.5 30t30.5 2t24 -19.5t3 -34.5q-1 -4 -9.5 -32t-21.5 -71h103q11 45 19 78.5t12 47.5q6 23 19 31t24.5 3t18.5 -21.5t3 -42.5q-1 -7 -6.5 -33t-13.5 -64q38 0 66.5 -0.5t40.5 -0.5q23 -1 33.5 -11.5t8.5 -23.5t-16.5 -24
t-39.5 -12z" />
    <glyph glyph-name="parenleft" unicode="(" horiz-adv-x="324" 
d="M258 583q-36 -41 -62 -98.5t-34 -121.5t5.5 -130.5t57.5 -124.5q20 -27 16.5 -52t-20.5 -37.5t-41.5 -5.5t-45.5 45q-40 71 -53.5 157t-5.5 169t35.5 153.5t70.5 110.5q29 27 52.5 29t35.5 -11t11 -36t-22 -47z" />
    <glyph glyph-name="parenright" unicode=")" horiz-adv-x="327" 
d="M94 109q32 40 54 96.5t24 121t-20 132t-79 127.5q-23 24 -23 48t14.5 37t40 9t55.5 -35q42 -44 67 -95.5t36.5 -106.5t10 -110.5t-13.5 -107t-33.5 -96t-49.5 -76.5q-26 -30 -49.5 -34t-37.5 8t-15 35t19 47z" />
    <glyph glyph-name="bracketright" unicode="]" horiz-adv-x="274" 
d="M83 687q13 0 31.5 -0.5t35 -6.5t28.5 -19.5t13 -38.5q0 -5 -1 -41t-2.5 -88.5t-4 -114.5t-4.5 -119t-3.5 -102t-2.5 -63q-1 -20 -10 -32.5t-22.5 -19.5t-30 -8.5t-34.5 -0.5q-24 1 -34 14.5t-9.5 29t10 29t24.5 15.5q15 1 26 6q0 23 0.5 58.5t1 78t1 88t1 89.5t1 83
t0.5 67q-11 5 -23 6q-15 2 -25 16t-10.5 30t9.5 29.5t34 14.5z" />
    <glyph glyph-name="braceleft" unicode="{" horiz-adv-x="271" 
d="M192 104q15 -2 24.5 -16t10 -30t-9.5 -29t-34 -14q-13 -1 -31.5 0t-35 7t-28.5 19.5t-12 38.5v11t1 24.5t2 44t3 69.5q0 13 -5.5 28.5t-14 30t-18 26.5t-17.5 18q9 7 19 20t18 27.5t13.5 29t6.5 25.5q1 39 2.5 67t3 47.5t2.5 33t1 25.5q1 20 10 33t22.5 19.5t30.5 8.5
t35 1q24 -2 34 -15t9 -28.5t-10.5 -29t-24.5 -15.5q-8 -2 -14.5 -3.5t-11.5 -3.5v-58.5t-1 -81.5q0 -19 -4.5 -36t-11 -31t-14 -24.5t-13.5 -16.5q5 -6 12 -15.5t13.5 -22.5t11 -28.5t4.5 -33.5q0 -39 -0.5 -64.5t-0.5 -51.5q8 -3 23 -6z" />
    <glyph glyph-name="braceright" unicode="}" horiz-adv-x="299" 
d="M98 596q-15 2 -24.5 16t-10 30t9.5 29.5t34 14.5q13 0 31 -0.5t34.5 -6.5t28.5 -19.5t13 -38.5q0 -3 -0.5 -11.5t-1.5 -25t-2 -43.5t-2 -69q0 -13 5.5 -28.5t13.5 -30.5t17.5 -27t18.5 -18q-10 -7 -19.5 -20t-18 -27.5t-14 -29.5t-6.5 -25q-1 -39 -2.5 -66.5t-2.5 -47.5
t-2 -33.5t-2 -25.5q-1 -20 -10 -32.5t-22.5 -19.5t-30 -8.5t-34.5 -0.5q-24 1 -34 14.5t-9.5 29t10 29t24.5 15.5q16 1 27 6v58.5t1 81.5q0 38 15 67.5t28 40.5q-5 6 -12.5 15.5t-14 22.5t-10.5 29t-4 34q0 39 0.5 64t0.5 51q-9 4 -23 6z" />
    <glyph glyph-name="minus" unicode="&#x2212;" horiz-adv-x="376" 
d="M281 270q-3 0 -31.5 1t-64 2.5t-68 2.5t-42.5 2q-15 1 -22.5 11.5t-7 22.5t8.5 22t25 11q5 0 33.5 -0.5t62.5 -1t64.5 -1t41.5 -0.5q17 0 25.5 -11.5t8.5 -25t-8.5 -25t-25.5 -10.5z" />
    <glyph glyph-name="plus" unicode="+" horiz-adv-x="372" 
d="M269 365q18 1 27 -10t9.5 -25t-7.5 -25.5t-25 -11.5h-65q0 -23 0.5 -40.5t1.5 -24.5q1 -18 -10.5 -27t-25 -9.5t-25 8t-11.5 25.5q0 2 -0.5 21.5t-0.5 45.5h-71q-15 0 -22.5 10t-7.5 22t7.5 22.5t24.5 12.5q4 1 23 1.5t45 1.5v69q1 15 11 22.5t22 7.5t22.5 -8t12.5 -24
q0 -4 0.5 -22t1.5 -44q22 1 39 1.5t24 0.5z" />
    <glyph glyph-name="semicolon" unicode=";" horiz-adv-x="231" 
d="M165 190q-13 -21 -26 -26t-21.5 -0.5t-10 15.5t9.5 21q-16 5 -29 17.5t-10 32.5q2 12 10.5 22t20 15.5t24 5t23.5 -8.5q12 -9 17 -21.5t5 -25.5t-3.5 -25.5t-9.5 -21.5zM117 517q23 -3 34 -14.5t13 -25.5t-3 -27t-14 -18q-18 -11 -40.5 -9t-36.5 23q-6 11 -4.5 24t8.5 24
t18.5 17.5t24.5 5.5z" />
    <glyph glyph-name="colon" unicode=":" horiz-adv-x="235" 
d="M115 521q23 -3 34 -14.5t13 -25t-3.5 -26.5t-14.5 -18q-18 -11 -40.5 -9t-36.5 23q-6 10 -4.5 23t8.5 24t18.5 17.5t25.5 5.5zM129 300q23 -3 34 -14.5t12.5 -25.5t-4 -27t-14.5 -18q-17 -11 -40 -8.5t-36 23.5q-7 11 -5 24t9.5 24t19 17.5t24.5 4.5z" />
    <glyph glyph-name="plusminus" unicode="&#xb1;" horiz-adv-x="388" 
d="M293 179q-3 0 -31.5 1t-64 2.5t-68 2.5t-42.5 2q-15 1 -22.5 11.5t-7 22.5t8.5 22t25 11h33.5t62.5 -1t64.5 -1.5t41.5 -0.5q17 0 25.5 -11.5t8.5 -25t-8.5 -25t-25.5 -10.5zM291 465q17 1 26 -10.5t10 -25t-7.5 -25t-25.5 -11.5h-65q1 -23 1.5 -40.5t0.5 -24.5
q1 -18 -10.5 -27t-25 -9.5t-25 8t-11.5 25.5v21t-1 46h-70q-15 0 -23 10t-8 22t7.5 22.5t24.5 12.5q5 1 24 1.5t45 0.5v70q0 15 10 22.5t22 7.5t22.5 -8t12.5 -24q1 -4 1 -22.5t1 -43.5q23 1 39.5 1.5t24.5 0.5z" />
    <glyph glyph-name="multiply" unicode="&#xd7;" horiz-adv-x="356" 
d="M285 284q13 -12 11.5 -26t-10.5 -24t-23 -12.5t-26 9.5q-2 2 -15 14.5t-31 31.5q-16 -17 -28 -30t-17 -18q-12 -13 -26 -11.5t-24 11t-12.5 23.5t9.5 26q2 2 15 15.5t32 32.5l-50 50q-10 11 -8.5 23.5t10 21.5t21.5 10.5t26 -8.5q3 -3 17 -16.5t33 -30.5l49 49
q11 10 23.5 8.5t21 -10t10.5 -21.5t-9 -26q-2 -3 -15 -16.5t-30 -31.5q17 -15 29 -27z" />
    <glyph glyph-name="divide" unicode="&#xf7;" horiz-adv-x="368" 
d="M183 477q23 -3 34 -14.5t13 -25.5t-3.5 -27t-14.5 -18q-18 -11 -40.5 -9t-36.5 23q-6 11 -4.5 24t8.5 24t18.5 17.5t25.5 5.5zM183 238q23 -3 34 -14.5t13 -25.5t-3.5 -27t-14.5 -18q-18 -11 -40.5 -9t-36.5 23q-6 11 -4.5 24t8.5 24t18.5 17.5t25.5 5.5zM280 270
q-3 0 -31.5 1t-64 2.5t-68 2.5t-42.5 2q-15 1 -22 11.5t-6.5 22.5t8.5 22t25 11q5 0 33 -0.5t62 -1t65 -1t41 -0.5q18 0 26.5 -11.5t8.5 -25t-9 -25t-26 -10.5z" />
    <glyph glyph-name="asciitilde" unicode="~" horiz-adv-x="384" 
d="M269 337q10 8 23.5 5.5t21 -11.5t6 -22.5t-20.5 -26.5q-34 -25 -66.5 -24.5t-53.5 23.5q-8 8 -28 7t-37 -18q-9 -9 -23.5 -8t-23 9t-6.5 21.5t26 31.5q34 25 65.5 23.5t54.5 -23.5q11 -10 27.5 -6t34.5 19z" />
    <glyph glyph-name="percent" unicode="%" horiz-adv-x="607" 
d="M518 504q-3 -3 -25.5 -30.5t-55.5 -67t-72 -86.5t-75 -90t-64.5 -76.5t-39.5 -45.5q-17 -19 -34 -19t-27.5 11.5t-11 31.5t15.5 42q5 7 27 35t53 67t67 84t69 86t58.5 73.5t35.5 45.5q15 20 35 19.5t34.5 -13t19 -31.5t-9.5 -36zM460 267q37 -4 54 -22.5t20 -40.5
t-5.5 -42.5t-22.5 -28.5t-30.5 -12t-33 -2t-32 10.5t-25.5 25.5q-11 17 -8 37.5t14 38t29.5 28.5t39.5 8zM183 556q38 -4 55.5 -23t20.5 -41.5t-5.5 -43.5t-22.5 -30t-31.5 -13t-34.5 -1.5t-32.5 11.5t-26.5 26t-8.5 38t14.5 39t31 29.5t40 8.5z" />
    <glyph glyph-name="asciicircum" unicode="^" horiz-adv-x="450" 
d="M158 313q-14 -12 -27.5 -11.5t-22.5 8t-10 20t10 24.5q12 12 25 26t26 27t25 24.5t20 18.5q17 14 38.5 15t41.5 -23q17 -23 37 -52.5t31 -49.5q7 -13 3.5 -24.5t-13.5 -18t-22.5 -5.5t-22.5 13q-8 9 -18.5 22.5t-19.5 26.5l-22 30q-16 -14 -31 -27q-13 -11 -26 -23.5
t-22 -20.5z" />
    <glyph glyph-name="guilsinglleft" unicode="&#x2039;" horiz-adv-x="255" 
d="M188 244q12 -14 11.5 -27.5t-8 -22.5t-20 -10t-24.5 10t-26 24.5t-27 26.5t-24.5 25t-18.5 20q-14 17 -15 38.5t23 41.5q23 17 52.5 37t49.5 31q13 7 24.5 3.5t18 -13.5t5.5 -22.5t-13 -22.5q-10 -8 -23 -18.5t-26 -19.5l-30 -22q14 -16 27 -31q11 -13 23.5 -26t20.5 -22
z" />
    <glyph glyph-name="greater" unicode="&#x3e;" horiz-adv-x="295" 
d="M80 397q-12 13 -11.5 27t8 23t20 10t24.5 -10t26 -24.5t27 -26.5t24.5 -25t18.5 -20q14 -17 15 -38.5t-23 -41.5q-23 -17 -52.5 -37t-48.5 -31q-13 -8 -25 -4t-18.5 14t-5.5 22.5t13 22.5q9 8 22.5 17.5t26.5 19.5q15 11 30 23q-14 15 -27 30q-11 13 -23.5 26.5
t-20.5 22.5z" />
    <glyph glyph-name="sterling" unicode="&#xa3;" horiz-adv-x="595" 
d="M468 651q10 0 20.5 -5.5t19 -17t14 -28t5.5 -38.5q0 -44 -10 -57.5t-32 -13.5q-20 0 -39.5 13t-21.5 40q-11 11 -27.5 20t-45.5 10q-26 1 -41.5 -15t-24.5 -45.5t-13 -71t-5 -92.5q27 -1 49.5 -1h30.5q18 0 26.5 -11.5t8.5 -25t-9 -25t-26 -10.5q-2 0 -27.5 0.5
t-58.5 2.5q-4 -35 -15.5 -75.5t-41.5 -88.5q-12 -18 -24 -33q39 0 79.5 0.5t72.5 0.5q38 0 73 1q2 4 3 8t2 9q1 12 12 20.5t24 10t23.5 -5.5t12.5 -26q1 -2 1.5 -15.5t-1.5 -30.5q-2 -18 -13 -29t-40 -16q-10 -2 -32.5 -2.5t-52 -0.5h-64h-67.5t-61.5 0.5t-47.5 0.5
t-26.5 9.5t-7.5 22t5.5 25.5t13.5 21q16 14 32.5 33t35.5 53q18 31 23.5 58.5t8.5 51.5q-17 1 -30 1.5t-18 1.5q-15 1 -22 11.5t-6.5 22.5t8.5 22t25 11h18t35 -1q-1 81 9.5 136t27.5 89t40 49.5t48.5 17.5t52 -7t50.5 -24q3 17 13.5 28t27.5 11z" />
    <glyph glyph-name="yen" unicode="&#xa5;" horiz-adv-x="500" 
d="M422 677q16 1 23 -8.5t7 -21t-7 -22t-17 -11.5q-8 -1 -10 -2t-7 -3l-106 -231q18 -1 31.5 -1h19.5q18 0 26.5 -11.5t8.5 -25t-9 -25t-26 -10.5q-2 0 -22 0.5t-48 2.5l-1 -21q26 -1 47.5 -1.5t29.5 -1.5q15 -1 22 -11.5t6.5 -22.5t-9 -22t-24.5 -11q-4 -1 -24.5 -0.5
t-48.5 1.5l-2 -109q5 -8 13 -9.5t15 -1.5q16 1 24 -9.5t8 -23t-9.5 -24t-28.5 -12.5q-39 -3 -72 -3t-44 -1q-17 -1 -23.5 8.5t-6.5 21t6.5 21.5t17.5 12q17 2 24 8t12 17l-2 106q-21 1 -37 1h-23q-18 0 -26.5 11.5t-8.5 25t9 25t26 10.5q2 0 18.5 -0.5t39.5 -1.5v20
q-23 2 -40 2.5t-24 0.5q-15 1 -22 11.5t-6.5 22.5t8.5 22.5t25 11.5q3 0 16.5 -0.5t32.5 -0.5l-119 239q-7 3 -14 4.5t-15 3.5q-10 1 -15 11.5t-3.5 22t9.5 20.5t24 8q11 0 43 -0.5t70 -3.5q19 -2 26.5 -13t6 -24t-11.5 -23.5t-25 -9.5q-7 0 -16 -7l87 -159l81 147
q-8 6 -16 6q-16 -1 -24.5 9.5t-8.5 23.5t8.5 24.5t28.5 13.5q39 3 65 3t37 1z" />
    <glyph glyph-name="florin" unicode="&#x192;" horiz-adv-x="627" 
d="M564 663q17 -5 22 -18t0 -26t-20 -21.5t-38 -3.5q-20 4 -34.5 4t-25.5 -6t-20.5 -18t-19.5 -33q-8 -26 -22 -68.5t-30 -91.5q19 0 33.5 -0.5t20.5 -0.5q18 0 26.5 -11.5t8.5 -25t-9 -25t-26 -10.5q-2 1 -24.5 1.5t-53.5 1.5q-16 -50 -29.5 -90.5l-19.5 -58.5q-1 -1 -1 -2
q-1 -1 -1 -4v-1q-19 -54 -38.5 -84.5t-45 -44t-58.5 -11.5t-79 14q-17 4 -22.5 17.5t-0.5 26.5t20 21.5t38 3.5q22 -5 36.5 -4t25 9t19 24.5t20.5 43.5l4 11.5t10.5 31t15.5 45.5t19 56q-14 0 -25 0.5t-16 1.5q-15 1 -22.5 11.5t-7 22.5t8.5 22t25 11h21t40 -1
q14 41 27.5 79t24.5 68q7 18 13 33q5 12 9 22.5t4 11.5h1q16 32 34.5 50.5t41.5 25t52.5 3.5t67.5 -13z" />
    <glyph glyph-name="cent" unicode="&#xa2;" horiz-adv-x="380" 
d="M263 92q10 8 22 6t19.5 -10t7 -21t-13.5 -27t-34.5 -25.5t-55.5 -13.5v-18q0 -18 -11.5 -26.5t-25 -8.5t-25 9t-10.5 26q0 2 0.5 9t0.5 19q-23 9 -43.5 26.5t-34 45t-18.5 65t3 85.5q10 59 39 91t62 46q1 13 1 22t1 14q1 15 11.5 22.5t22.5 7t22 -9t11 -24.5v-16h11
q15 -1 29.5 -6t26.5 -13.5t20 -20t10 -25.5q1 -14 -4 -23.5t-13.5 -13t-18.5 -1.5t-19 11q-12 13 -33.5 15.5t-43 -7.5t-38 -33t-19.5 -60q-2 -28 1 -52t12 -42.5t23.5 -29.5t34.5 -12q24 -2 39.5 3t30.5 16z" />
    <glyph glyph-name="Euro" unicode="&#x20ac;" horiz-adv-x="583" 
d="M468 156q12 15 27.5 15t26 -10t12.5 -27.5t-12 -37.5q-12 -18 -28.5 -33.5t-40 -27t-56.5 -17.5t-79 -3t-81 17t-60.5 41.5t-42 71t-23.5 106.5h-11q-26 -1 -39.5 10.5t-13.5 25t12.5 25t37.5 11.5h8q0 11 -0.5 21.5t-0.5 22.5q-11 0 -14 1q-22 1 -32.5 11.5t-10 22.5
t13 22t36.5 11h9q7 79 33.5 129.5t61 79.5t71.5 40t66 12q25 1 52.5 -4t52.5 -17.5t44.5 -32t28.5 -46.5q8 -23 1 -35t-22 -14.5t-34.5 4t-36.5 21.5q-35 30 -70.5 34.5t-66.5 -14t-55 -59t-35 -100.5q29 -1 60 -2t58.5 -1.5t49 -1t30.5 -0.5q26 0 38.5 -12t12 -25.5
t-13.5 -24.5t-38 -10q-3 0 -23 0.5t-49 1.5t-64 2.5t-68 2.5q-1 -3 -1 -9v-31h63.5h63.5h53.5h32.5q22 0 33 -10t10.5 -22t-12.5 -23t-36 -12q-5 0 -25.5 -0.5t-49 -1t-61.5 -1t-64 -1.5q15 -81 55.5 -120t95.5 -37q44 2 71.5 18.5t48.5 42.5z" />
    <glyph glyph-name="dollar" unicode="$" horiz-adv-x="482" 
d="M363 335q27 -21 43.5 -55t22.5 -72t1 -76t-22 -67q-19 -31 -54.5 -43t-77.5 -13v-27q0 -24 -11.5 -39t-24.5 -18t-24 7t-11 35v47q-17 2 -32 5.5t-29 7.5v-3q0 -17 -8 -31t-22 -14q-15 0 -29.5 20t-14.5 60t7 51.5t24 11.5q14 0 28 -6.5t28 -15.5q11 -7 22.5 -11.5
t23.5 -8.5q-2 49 -3.5 110t-3.5 126q-25 2 -50.5 9.5t-47 27.5t-35 55.5t-14.5 94.5q0 41 10.5 70.5t29 49t43.5 29t54 9.5v12t-1 10q-1 34 11.5 50t28 15.5t29 -16.5t13.5 -46v-39q24 -10 44 -21l1 3q0 18 7.5 31.5t22.5 13.5t29 -20t14 -60t-6.5 -52t-23.5 -11
q-22 0 -34.5 6t-23.5 17q-14 14 -29 23q1 -43 1.5 -95.5t2.5 -109.5q24 -5 48 -13.5t43 -23.5z" />
    <glyph glyph-name="asterisk" unicode="*" horiz-adv-x="312" 
d="M100 588q-7 10 -5 19.5t9 14.5t17 3.5t19 -13.5q2 -2 6.5 -8.5t11.5 -16.5q5 10 9 17.5t6 11.5q6 12 17 14t20.5 -2.5t14 -14.5t-2.5 -21q-1 -2 -5.5 -10t-12.5 -20h35q14 0 21 -9.5t7 -20t-7.5 -18.5t-20.5 -7q-1 0 -7 0.5t-17 1.5q11 -14 14 -20q8 -12 5 -22.5
t-11.5 -16.5t-19 -5.5t-17.5 11.5q-1 2 -7 11.5t-15 23.5q-8 -13 -13.5 -22t-7.5 -14q-6 -11 -15.5 -13.5t-17 2t-10.5 14t4 22.5q1 2 5.5 11.5t11.5 22.5q-14 1 -24 1.5t-14 0.5q-13 1 -19.5 8t-6.5 15.5t7.5 16t22.5 7.5h29q-5 8 -9.5 15t-6.5 10z" />
    <glyph glyph-name="copyright" unicode="&#xa9;" horiz-adv-x="708" 
d="M368 672q90 1 145 -23.5t85 -68t40 -102t10 -124.5t-13 -123.5t-47.5 -99.5t-94 -66t-152.5 -24q-83 0 -138.5 28t-87.5 76t-43.5 110.5t-6.5 131.5q3 53 27.5 104t65 90.5t94.5 64.5t116 26zM501 164q15 19 14.5 38.5t-10 32.5t-25 16.5t-28.5 -8.5q-17 -16 -35.5 -21.5
t-49.5 -6.5q-14 0 -29.5 6t-29.5 21.5t-23.5 42.5t-11.5 68q-3 47 14 79t40.5 49.5t46.5 20t32 -9.5q10 -12 24.5 -15t28 1.5t22 16t5.5 28.5t-14.5 30.5t-27.5 22.5t-34.5 14t-36.5 4q-22 -1 -55 -10.5t-64.5 -33.5t-54 -66.5t-22.5 -109.5q0 -71 13.5 -119.5t37 -79
t54 -45t64.5 -15.5q65 -3 100.5 11.5t54.5 37.5z" />
    <glyph glyph-name="registered" unicode="&#xae;" horiz-adv-x="320" 
d="M151 604q18 1 38.5 0.5t38.5 -9t30.5 -26.5t12.5 -52q0 -33 -6 -54t-18 -32.5t-30 -16t-42 -5.5t-45 4t-36.5 17.5t-24.5 33t-7 50.5q2 38 26 62.5t63 27.5zM224 447q11 1 9.5 11.5t-10.5 10.5q-5 -2 -10 2q-9 21 -18 29q14 5 18.5 12t5.5 21q0 7 -2 14t-11 12t-26 8
t-46 2h-3q-11 0 -10.5 -10.5t8.5 -11.5q3 0 5 -1l-4 -77q-3 -3 -7 -3q-6 0 -9.5 -3t-4 -7.5t2 -8.5t9.5 -4h40q6 0 8 3t2 7t-2 7.5t-6 3.5q-7 0 -10 3v28h9.5t6.5 1q5 -3 12.5 -10t12.5 -18q-2 -1 -3 -1t-3 -1q-7 0 -7.5 -10t9.5 -10q3 1 13 0.5t21 0.5z" />
    <glyph glyph-name="trademark" unicode="&#x2122;" horiz-adv-x="506" 
d="M215 587q10 -1 14.5 -9t4.5 -18t-5.5 -18t-16.5 -9h-10.5t-20.5 1q0 -14 -0.5 -29.5t-1 -30t-1 -26t-0.5 -15.5q0 -12 -9 -17.5t-20 -5.5t-20 6t-8 17q0 1 0.5 11.5t1 25.5t1 32.5t1.5 32.5q-8 0 -13 1q-3 -8 -11 -15q-6 -5 -13.5 -7t-14.5 1.5t-12 13.5t-5 30
q-2 13 3.5 24.5t18.5 10.5q2 0 21 -1t42.5 -2t45 -2t28.5 -2zM444 480q12 -5 17.5 -12t6 -14.5t-3 -15t-9.5 -11.5q-7 -5 -16.5 -6t-17.5 -2q-10 0 -21 5t-13 18q0 3 0.5 18t0.5 35q-5 -5 -9 -10t-7 -7q-2 -2 -4 -3q-8 -5 -16.5 -6.5t-16.5 6.5q-2 2 -6 7t-10 12
q-1 -17 -1 -31.5v-19.5q0 -12 -9.5 -17.5t-20.5 -5.5t-20 6t-8 17q0 2 1 21t2 42t2 44.5t2 28.5q1 14 15.5 18t25.5 -2q5 -2 8 -6q2 -2 13.5 -17t24.5 -32q11 14 23 27t17 21q1 1 1.5 2t2.5 2t3 2t3 1q6 3 14 3.5t14.5 -2t11 -7.5t4.5 -13q0 -1 -0.5 -10.5t-1 -23.5
t-1 -30.5t-1.5 -31.5z" />
    <glyph glyph-name="mu" unicode="&#xb5;" horiz-adv-x="372" 
d="M298 103q16 0 25.5 -13t9 -29t-11.5 -29.5t-36 -13.5q-22 -1 -32 7.5t-18 19.5q-9 -11 -33 -17t-80 -5h-7q-1 -32 -1.5 -59t0.5 -37q0 -18 -11.5 -26.5t-25.5 -8.5t-25 9t-10 26q0 2 1 28.5t2 60t2 65.5t2 47q0 27 0.5 46.5t1.5 43.5t12.5 35.5t24.5 11.5t23 -10t8 -29
q-2 -17 -2 -40v-44q-1 -14 10.5 -31.5t31.5 -19.5q18 -2 31 3.5t22 16t13.5 23.5t5.5 27q2 14 1.5 25t0.5 27q1 25 12 37t23.5 11.5t23 -12.5t10.5 -34t-0.5 -33t-1.5 -20.5t-1.5 -22t-0.5 -36.5z" />
    <glyph glyph-name="mu" unicode="&#x3bc;" horiz-adv-x="372" 
d="M298 103q16 0 25.5 -13t9 -29t-11.5 -29.5t-36 -13.5q-22 -1 -32 7.5t-18 19.5q-9 -11 -33 -17t-80 -5h-7q-1 -32 -1.5 -59t0.5 -37q0 -18 -11.5 -26.5t-25.5 -8.5t-25 9t-10 26q0 2 1 28.5t2 60t2 65.5t2 47q0 27 0.5 46.5t1.5 43.5t12.5 35.5t24.5 11.5t23 -10t8 -29
q-2 -17 -2 -40v-44q-1 -14 10.5 -31.5t31.5 -19.5q18 -2 31 3.5t22 16t13.5 23.5t5.5 27q2 14 1.5 25t0.5 27q1 25 12 37t23.5 11.5t23 -12.5t10.5 -34t-0.5 -33t-1.5 -20.5t-1.5 -22t-0.5 -36.5z" />
    <glyph glyph-name="guillemotleft" unicode="&#xab;" horiz-adv-x="486" 
d="M212 267q12 -13 11.5 -26.5t-8 -22.5t-20 -10t-24.5 10t-26 24.5t-27 26.5t-24.5 25t-18.5 20q-14 17 -14.5 38.5t23.5 40.5q22 18 51.5 38t49.5 31q13 7 25 3.5t18.5 -13.5t5.5 -22.5t-13 -22.5q-10 -8 -23.5 -18.5t-26.5 -19.5l-30 -22q14 -16 27 -31
q11 -13 23.5 -26.5t20.5 -22.5zM392 257q12 -14 11.5 -27.5t-8 -22.5t-20 -10t-24.5 10t-26 24.5t-27 26.5t-24.5 25t-18.5 20q-14 17 -15 38.5t23 41.5q23 17 52.5 37t49.5 31q13 7 24.5 3.5t18 -13.5t5.5 -22.5t-13 -22.5q-10 -8 -23 -18.5t-26 -19.5l-30 -22
q14 -16 27 -31q11 -13 23.5 -26t20.5 -22z" />
    <glyph glyph-name="guillemotright" unicode="&#xbb;" horiz-adv-x="486" 
d="M268 367q-12 13 -11.5 27t8 23t20.5 10t25 -10t25.5 -24.5l26.5 -26.5t24.5 -25t18.5 -20q15 -17 15.5 -38.5t-23.5 -41.5q-22 -17 -52 -37t-49 -31q-13 -8 -25 -4t-18.5 14t-5.5 22.5t13 22.5q10 8 23.5 17.5t26.5 19.5q15 11 30 23q-15 15 -28 30q-11 13 -23.5 26.5
t-20.5 22.5zM87 394q-12 13 -11.5 27t8 22.5t20 9.5t24.5 -10t26 -24.5t27 -26.5t24.5 -25t18.5 -20q14 -17 15 -38t-23 -41q-23 -18 -52.5 -38t-49.5 -31q-13 -8 -24.5 -4t-18 14t-5.5 22.5t13 22.5q9 8 22.5 18t26.5 20q15 11 30 23q-14 15 -27 30q-11 13 -23.5 26
t-20.5 23z" />
    <glyph glyph-name="questiondown" unicode="&#xbf;" horiz-adv-x="380" 
d="M221 536q-23 3 -34 14.5t-13 25t3 26.5t14 19q18 11 40.5 9t36.5 -24q7 -11 5.5 -23.5t-9 -23.5t-19 -18t-24.5 -5zM330 20q-21 -15 -51.5 -22t-63 -7.5t-62 5.5t-47.5 19q-27 19 -40 50.5t-14.5 65.5t7 66.5t23.5 54.5q21 31 38.5 47t30 30.5t20 33.5t10.5 55
q1 18 14 26.5t27.5 7t26 -11.5t10.5 -28q0 -11 -1.5 -26.5t-6 -33t-14 -35t-27.5 -31.5q-16 -13 -35 -30t-32.5 -39t-17 -49t11.5 -60q8 -18 29 -27t45.5 -10t48.5 4.5t39 15.5t28 4.5t19 -18.5t3 -29t-19 -28z" />
    <glyph glyph-name="exclamdown" unicode="&#xa1;" horiz-adv-x="198" 
d="M45 11q0 3 1 31t3 68.5t3.5 89t3.5 92.5t4 78.5t3 47.5q1 20 13.5 29t27 6.5t26.5 -14.5t13 -34v-34.5t-0.5 -67.5t-1.5 -84.5t-1.5 -87.5t-1 -74.5t-0.5 -45.5q0 -20 -15 -29t-32.5 -8.5t-32 10t-13.5 27.5zM109 538q-23 3 -34 14.5t-13 25.5t3.5 27t14.5 18q17 11 40 9
t36 -23q7 -11 5.5 -24t-9 -24t-19 -18t-24.5 -5z" />
    <glyph glyph-name="slash" unicode="/" horiz-adv-x="388" 
d="M60 80q1 2 9.5 25t21.5 59t30 82t35 94.5t35.5 96t32.5 87t25.5 67.5t14.5 37q8 18 22.5 22.5t27.5 -2.5t20 -22t1 -36l-15 -45t-32.5 -95t-42 -120.5t-43 -122.5t-35.5 -101t-19 -56q-6 -19 -23 -22.5t-33.5 2.5t-27 20t-4.5 30z" />
    <glyph glyph-name="backslash" unicode="\" horiz-adv-x="348" 
d="M95 623q1 -2 11 -24t26 -57t36.5 -79.5t42 -91.5t43 -93t39 -84.5t29.5 -66t16 -36.5q7 -18 0 -31.5t-21 -18t-30 1.5t-26 25q-3 6 -21 43t-44 90t-56 114.5t-56.5 117t-46.5 96.5t-26 53q-9 18 0.5 32.5t25.5 22t33.5 5t24.5 -18.5z" />
    <glyph glyph-name="bar" unicode="|" horiz-adv-x="255" 
d="M90 76q0 3 1 44t2.5 101.5t3.5 131.5t4 135t3.5 111.5t2.5 60.5q2 20 14.5 28.5t26.5 6.5t26 -14t13 -34v-48t-0.5 -100t-1 -127.5t-1 -130t-1 -107t-0.5 -58.5q0 -20 -15 -29t-32.5 -8.5t-32 10t-13.5 27.5z" />
    <glyph glyph-name="hyphen" unicode="-" horiz-adv-x="287" 
d="M205 328q-2 0 -19.5 1t-40 2.5t-44 2.5t-31.5 2q-15 1 -22 11.5t-6.5 22.5t8.5 22t25 11h22t37.5 -1t40.5 -1.5t30 -0.5q18 0 26.5 -11.5t8.5 -25t-9 -25t-26 -10.5z" />
    <glyph glyph-name="underscore" unicode="_" horiz-adv-x="745" 
d="M656 -29q-3 0 -44 1t-101.5 3t-131.5 3.5t-135 3.5t-111.5 4t-60.5 3q-20 1 -28.5 13.5t-6.5 26.5t14.5 26t33.5 13h48t100 -0.5t127.5 -1t130 -1t107 -1t58.5 -0.5q20 0 29.5 -15t8.5 -32.5t-10.5 -32t-27.5 -13.5z" />
    <glyph glyph-name="ampersand" unicode="&#x26;" horiz-adv-x="571" 
d="M495 93q16 -2 25.5 -12.5t10.5 -22.5t-7 -22t-26 -9q-47 2 -72 9.5t-41 21.5q-19 -8 -40.5 -14.5t-46.5 -10.5q-45 -7 -83.5 3t-68 33.5t-49 57t-27.5 72.5q-10 47 11.5 90.5t60.5 79.5q-17 26 -21 62t3 73q5 31 18.5 57t35 43t50.5 24.5t65 0.5q55 -10 83 -53.5
t30 -103.5q1 -42 -20.5 -74t-56.5 -51l85 -180q8 9 13 18.5t7 21.5q3 14 15 20t25 3.5t22.5 -13.5t8.5 -29q-2 -20 -13.5 -41t-35.5 -41q18 -10 39 -13z" />
    <glyph glyph-name="section" unicode="&#xa7;" horiz-adv-x="441" 
d="M198 535q-16 -10 -24 -29.5t-7 -40t12.5 -38t34.5 -23.5t44.5 -12.5t40.5 -16.5t35.5 -24.5t29.5 -35.5q12 -19 8.5 -36.5t-16.5 -34.5q6 -8 8 -12q13 -21 10.5 -47.5t-15.5 -51.5t-34 -44t-44 -25q-34 -9 -71 -2t-66 21q-1 -32 -9.5 -42t-27.5 -10q-10 0 -20.5 3.5
t-19 11t-13 18.5t-3.5 26l3 40q0 18 9.5 31.5t27.5 13.5q11 0 22.5 -7t19.5 -22q6 -11 27.5 -18.5t50.5 -10.5q54 -5 76.5 15t19.5 47.5t-27.5 53t-62.5 31.5q-29 5 -53.5 21t-39.5 37.5t-16.5 46.5t15.5 48q-22 49 -3 118q9 32 31 46t49 16t55.5 -5t49.5 -16v1q0 18 10 32
t28 14t35.5 -20t17.5 -61q0 -40 -8.5 -52t-28.5 -12q-14 0 -27.5 6.5t-21.5 19.5q-5 10 -17.5 19.5t-28.5 15t-33.5 5.5t-32.5 -9z" />
    <glyph glyph-name="daggerdbl" unicode="&#x2021;" horiz-adv-x="372" 
d="M290 468q-2 0 -23 0.5t-50 1.5q-1 -47 -2 -98t-3 -99q26 -2 46.5 -2.5t28.5 -1.5q15 -1 22 -11.5t6.5 -22.5t-9 -22t-24.5 -11h-24.5t-47.5 1q-2 -47 -3 -81.5t-2 -49.5q-2 -29 -14.5 -41t-26.5 -9t-26 20.5t-13 48.5v114h-44q-18 0 -26.5 11.5t-8.5 25t9 25t26 10.5h14
t31 -1q1 48 1 99t1 99q-16 0 -27.5 0.5t-16.5 1.5q-15 1 -22.5 11.5t-7 22.5t8.5 22t25 11h41v112q0 28 15 41t32.5 12t32 -14.5t13.5 -38.5q0 -5 -0.5 -35.5t-2.5 -78.5q25 -1 44 -1.5t27 0.5q18 0 26.5 -11.5t8.5 -25t-9 -25t-26 -10.5z" />
    <glyph glyph-name="dagger" unicode="&#x2020;" horiz-adv-x="348" 
d="M271 552q18 0 26.5 -11.5t8.5 -25t-9 -25t-26 -10.5q-2 0 -22.5 0.5t-49.5 1.5q-2 -57 -3.5 -120t-3.5 -119t-3.5 -99t-2.5 -60q-2 -29 -14 -41t-26.5 -9t-26.5 20.5t-13 48.5q0 9 0.5 48t1 93.5t1 118.5t0.5 123q-15 0 -27 0.5t-17 1.5q-15 1 -22 11.5t-6.5 22.5t8.5 22
t25 11h40q0 39 0.5 68.5t0.5 43.5q0 28 15 41t32.5 12t32 -14.5t13.5 -38.5q0 -5 -1 -35.5t-2 -78.5q24 -1 43 -1.5t27 0.5z" />
    <glyph glyph-name="paragraph" unicode="&#xb6;" horiz-adv-x="453" 
d="M315 662q32 -5 47 -32t15 -56q0 -10 0.5 -48t1.5 -90.5t2 -113t1.5 -115t0.5 -97t-1 -59.5q-2 -25 -12 -33t-21 -4.5t-20 15.5t-9 27q0 10 -0.5 47t-1 87.5t-1 108.5t-1 108.5t-1 88t-0.5 47.5q0 29 -15 39t-38 14q3 -137 6 -251q1 -49 2.5 -97t2.5 -89t1.5 -70.5
t0.5 -41.5q0 -23 -10.5 -32.5t-22.5 -8t-22.5 12.5t-10.5 28v46t-1 64.5t-3 69t-5 59.5q-39 1 -68 12t-48.5 35.5t-29 65.5t-9.5 104q0 61 24.5 97t63.5 52.5t87 17t95 -7.5z" />
    <glyph glyph-name="quoteleft" unicode="&#x2018;" horiz-adv-x="214" 
d="M168 617q8 -19 1.5 -38t-23.5 -26t-37.5 8t-37.5 56q-9 21 -12.5 34.5t-2.5 22.5t6.5 14t14.5 9q18 8 41.5 0.5t34.5 -38.5z" />
    <glyph glyph-name="quoteright" unicode="&#x2019;" horiz-adv-x="239" 
d="M171 594q-8 -18 -25.5 -27t-34.5 -2t-21 32t13 67q16 41 29 50t32 2q18 -8 29 -29.5t-3 -51.5z" />
    <glyph glyph-name="quotedblright" unicode="&#x201d;" horiz-adv-x="328" 
d="M124 706q19 -8 30 -29.5t-3 -51.5l-19 -40q-8 -19 -25.5 -28t-34.5 -2t-21.5 32t12.5 67q9 21 16 33t14 17.5t14.5 5.5t16.5 -4zM246 697q19 -8 30 -29.5t-3 -51.5l-19 -40q-8 -19 -26 -28t-35 -2t-21 32t13 67q9 21 16 33t14 17.5t14.5 5.5t16.5 -4z" />
    <glyph glyph-name="quotedblleft" unicode="&#x201c;" horiz-adv-x="328" 
d="M70 693q9 4 20 4t21.5 -4t19.5 -13.5t15 -25.5l15 -42q8 -18 1.5 -37t-23.5 -26t-38 8t-38 56q-17 40 -14.5 56t21.5 24zM194 701q9 4 20 4.5t21.5 -3.5t20 -13.5t14.5 -25.5l15 -42q8 -18 1.5 -37t-23.5 -26q-17 -8 -37.5 7t-37.5 57q-17 41 -14.5 56t20.5 23z" />
    <glyph glyph-name="perthousand" unicode="&#x2030;" horiz-adv-x="757" 
d="M472 503q-3 -3 -25.5 -30t-55.5 -67t-72 -87t-74.5 -90t-64 -76.5t-39.5 -45.5q-17 -19 -34.5 -19t-28 11.5t-11 31.5t15.5 42q5 7 27 35t53 67t67 84t69 86t58.5 73.5t35.5 45.5q15 20 35 19.5t34.5 -13t19 -31.5t-9.5 -36zM414 266q37 -4 54 -22.5t20 -40t-5 -42
t-22 -29.5q-14 -8 -31 -12t-33.5 -1.5t-32 11t-25.5 25.5q-11 16 -8 36.5t14 38t29.5 28.5t39.5 8zM625 285q37 -4 54 -22.5t20 -40.5t-5 -42.5t-22 -29.5q-14 -8 -31 -12t-33.5 -1.5t-32 11t-25.5 25.5q-11 17 -8 37.5t14 37.5t29.5 28t39.5 9zM137 555q38 -4 55.5 -23
t21 -41.5t-5 -43.5t-23.5 -30q-14 -9 -31.5 -13t-34.5 -1.5t-32.5 11.5t-26.5 26t-8.5 38t14.5 39t31 29.5t40 8.5z" />
    <glyph glyph-name="dieresis" unicode="&#xa8;" horiz-adv-x="465" 
d="M127 716q23 -3 34 -14.5t13 -25.5t-3 -27t-14 -18q-18 -11 -40.5 -9t-36.5 23q-7 11 -5.5 24t9 24t19 17.5t24.5 5.5zM369 684q23 -3 34 -14.5t13 -25t-3 -26.5t-14 -19q-18 -11 -40.5 -9t-36.5 24q-7 10 -5.5 23t9 24t19 17.5t24.5 5.5z" />
    <glyph glyph-name="circumflex" unicode="&#x2c6;" horiz-adv-x="352" 
d="M104 627q-14 -12 -27.5 -11.5t-22.5 8t-10 20t10 24.5q23 25 51 53t45 43q17 14 38.5 14.5t41.5 -23.5q17 -22 37 -51.5t31 -49.5q7 -13 3.5 -25t-13.5 -18.5t-22.5 -5.5t-22.5 13q-8 10 -18.5 23.5t-19.5 26.5l-22 30q-16 -14 -31 -27q-13 -11 -26 -23.5t-22 -20.5z" />
    <glyph glyph-name="grave" unicode="`" horiz-adv-x="259" 
d="M192 712q14 -14 15.5 -34.5t-11.5 -33.5q-13 -12 -38 -6t-56 37q-32 31 -35 47t11 30t38 16t47 -23z" />
    <glyph glyph-name="acute" unicode="&#xb4;" horiz-adv-x="231" 
d="M132 668q-14 -14 -34.5 -15.5t-33.5 11.5q-12 13 -6 38t37 56t47 34.5t30 -10.5t16 -38t-23 -47z" />
    <glyph glyph-name="tilde" unicode="&#x2dc;" horiz-adv-x="376" 
d="M282 719q10 8 23.5 5.5t21 -11.5t5.5 -22.5t-21 -26.5q-34 -24 -66 -24t-54 23q-8 8 -27.5 7t-36.5 -18q-9 -9 -23.5 -8t-23 9t-6.5 21.5t26 31.5q34 25 65.5 23.5t54.5 -22.5q11 -11 27.5 -7t34.5 19z" />
    <glyph glyph-name="ring" unicode="&#x2da;" horiz-adv-x="267" 
d="M142 785q42 -5 62 -26t23.5 -46t-6 -48.5t-25.5 -32.5q-16 -10 -35.5 -14.5t-38.5 -2t-36 12.5t-29 29t-9.5 42.5t15.5 43.5t34 32.5t45 9.5z" />
    <glyph glyph-name="fi" unicode="&#xfb01;" horiz-adv-x="562" 
d="M480 86q12 -2 19 -13t7.5 -23.5t-7.5 -22.5t-26 -9q-12 0 -48.5 0.5t-80.5 3.5q-22 2 -30.5 14.5t-6.5 27t13 26t28 10.5q14 -1 24 14q2 83 4 150q1 28 1.5 56t1 50t1 36.5t0.5 17.5q0 14 -6.5 25.5t-18.5 12.5q-17 1 -40 1h-46h-54v-85t-0.5 -96t-1 -95.5t-0.5 -83.5
q6 -11 15 -17t27 -9q12 -2 20 -13t8 -23.5t-8 -22.5t-27 -9q-12 0 -50.5 0.5t-84.5 3.5q-23 2 -31.5 14.5t-6.5 27t13.5 26t29.5 10.5q13 -1 23 12q0 33 0.5 75.5t1.5 89.5t1.5 96t1.5 97l-37 -1q-30 0 -39 6.5t-9 21.5t12.5 27.5t34.5 13.5q1 0 11.5 0.5t26.5 0.5
q0 2 0.5 4.5t0.5 4.5q1 80 25 118.5t57 49.5t67 1t54 -28q13 -12 14 -25.5t-5 -23.5t-18 -13t-24 5q-12 9 -29.5 9t-33.5 -10t-27.5 -31.5t-11.5 -57.5h98q33 0 70 -1q27 -5 44.5 -27t17.5 -56q0 -6 -0.5 -28t-1 -53t-1 -67t-1.5 -71t-1.5 -65t-1.5 -48q5 -14 13.5 -21
t28.5 -10z" />
    <glyph glyph-name="fl" unicode="&#xfb02;" horiz-adv-x="587" 
d="M481 67q18 1 29.5 -10.5t13.5 -26t-7 -27t-31 -13.5q-22 -2 -43 -3t-39 -1t-30.5 -0.5t-18.5 -0.5q-19 -1 -27 9t-7.5 23t8 24t19.5 13q12 1 18 4t9.5 8.5t5.5 13t5 18.5q2 4 2 5q1 132 2 237q0 45 0.5 88t0.5 77.5v56.5v24q0 19 -19 29q-31 12 -59 9.5t-49 -17
t-33.5 -39t-12.5 -56.5q14 0 26 0.5t22 0.5q11 0 21 1l24 1q13 0 22.5 -10t9.5 -23t-14 -25.5t-43 -12.5h-2l-66 -2v-85t-0.5 -96t-1 -96t-0.5 -84q6 -11 15 -17t27 -8q12 -2 19.5 -13t8 -24t-7.5 -23t-27 -9q-12 1 -50.5 1t-84.5 4q-23 1 -31.5 13.5t-6.5 27t13.5 26
t29.5 10.5q13 0 23 12q0 33 0.5 75.5t1.5 89.5t1.5 96.5t1.5 97.5l-37 -2q-30 0 -39 6.5t-9 21.5t12.5 27.5t34.5 14.5h11t27 1v9q1 53 17 88.5t42 56.5t58 29t64 6t61.5 -13t49.5 -27q13 -10 17 -26.5t5 -36.5q0 -10 -0.5 -40.5t-1 -75t-1.5 -97.5t-1.5 -107t-0.5 -105v-90
q10 -13 23 -13z" />
    <glyph glyph-name="Ccedilla" unicode="&#xc7;" horiz-adv-x="460" 
d="M238 593q-29 1 -50 -20.5t-35.5 -59.5t-23.5 -89.5t-13 -109.5q-6 -68 1.5 -114t23 -74.5t36.5 -41.5t42 -15t42.5 2t38.5 14.5t27 26.5t9 39q-2 34 7 52t20.5 19.5t22.5 -13t13 -44.5q3 -42 -9 -73.5t-34.5 -51.5t-54.5 -29t-68 -6q-2 -5 -3 -8.5t-2 -8.5
q16 -3 25.5 -12.5t13 -22t2 -27t-6.5 -26.5q-5 -13 -18.5 -23t-31.5 -16t-38.5 -6t-40.5 6q-15 4 -17.5 14.5t3.5 20t18 15t26 0.5q16 -6 29.5 1.5t15.5 18.5t-8.5 17.5t-36.5 3.5l21 60q-32 8 -59.5 27.5t-46 59.5t-26 105.5t1.5 166.5q9 110 37 173t65 90t79 23.5
t79 -26.5q3 16 13.5 27.5t27.5 11.5q10 0 20.5 -5.5t19 -17t14 -28t5.5 -38.5q0 -44 -9.5 -57.5t-31.5 -13.5q-20 0 -39.5 13t-22.5 40q-11 11 -27.5 20t-45.5 10z" />
    <glyph glyph-name="ccedilla" unicode="&#xe7;" horiz-adv-x="425" 
d="M324 94q9 11 22 10t23 -10t13 -23t-7 -29q-15 -22 -45 -36t-80 -16q-2 -5 -3.5 -10t-2.5 -10q16 -3 25.5 -12.5t13 -22t2 -27t-6.5 -26.5q-5 -13 -18.5 -23t-31.5 -15.5t-38.5 -6t-40.5 5.5q-15 4 -17.5 14.5t3.5 20t18 15t26 0.5q16 -5 29.5 2t15.5 18t-8.5 18t-36.5 3
l19 58q-33 4 -62.5 20t-51.5 48t-35 81.5t-13 120.5t23.5 115.5t56 69.5t67.5 34.5t58 10.5q19 1 38.5 -3.5t36 -14t28.5 -23.5t15 -32t-3.5 -28.5t-18 -13t-24.5 3.5t-22 20q-19 30 -51.5 30t-63 -23.5t-52.5 -67t-19 -100.5q5 -98 42 -145t88 -45q32 1 52.5 13t36.5 31z
" />
    <glyph glyph-name="ogonek" unicode="&#x2db;" horiz-adv-x="247" 
d="M179 -54l-6 -14q-7 -15 -11 -32q17 -3 26.5 -12.5t13 -22t2 -27t-6.5 -26.5q-6 -13 -19.5 -23t-31.5 -15.5t-38.5 -6t-40.5 5.5q-15 5 -17.5 15.5t3.5 20t18 14.5t26 0q16 -5 29.5 2t15.5 18t-8.5 18t-36.5 4l27 76z" />
    <glyph glyph-name="Ntilde" unicode="&#xd1;" horiz-adv-x="587" 
d="M505 715q19 1 27 -9.5t7.5 -23t-8 -24t-19.5 -12.5q-16 -2 -24.5 -7t-13.5 -14q-1 -37 -2 -85.5t-2 -100.5t-2 -102.5t-1.5 -93t-1.5 -72.5t-1 -39q-1 -24 -12 -43.5t-25 -28t-29.5 -3.5t-25.5 31q-5 13 -14 37.5t-21 56.5t-26 68.5t-27 72.5q-32 84 -68 184l-16 -404
q11 -6 28 -9q12 -2 19.5 -13t8 -23.5t-7.5 -22.5t-27 -9q-13 0 -51.5 0.5t-83.5 3.5q-23 2 -31.5 14.5t-6.5 27t13.5 26t29.5 10.5q8 -1 17 6l12 523q-4 1 -14 3q-12 2 -19.5 14t-8 25.5t7.5 24.5t27 10h5h3h45q15 0 35 -6.5t27 -29.5q1 -6 9.5 -27.5t20.5 -53.5t27 -71
t31 -79q37 -93 83 -209l2 382q-10 13 -22 13q-18 -1 -29.5 10.5t-13.5 25.5t7 26.5t31 14.5q45 4 82 4t49 1zM224 789q-9 -9 -23 -8t-23 9t-6.5 21.5t26.5 31.5q33 25 65 23.5t55 -23.5q11 -10 27.5 -6t34.5 19q10 8 23 5.5t20.5 -11.5t6 -22.5t-20.5 -26.5
q-34 -25 -66.5 -24.5t-53.5 23.5q-8 8 -28 7t-37 -18z" />
    <glyph glyph-name="ntilde" unicode="&#xf1;" horiz-adv-x="473" 
d="M406 111q18 1 29 -10.5t13 -26t-7 -27t-31 -14.5q-45 -3 -82 -3.5t-49 -0.5q-19 -1 -26.5 9t-7 22.5t7.5 23.5t19 13q22 3 31 12q-2 42 -3 103.5t0 132.5q1 47 -19 65.5t-44.5 15t-45 -24.5t-21.5 -53q0 -17 -1 -46t-3 -63t-4 -69.5t-4 -65.5q6 -15 12.5 -23t26.5 -11
q12 -2 19 -13t7.5 -23.5t-7.5 -22.5t-26 -9h-18.5t-30 0.5t-38 1t-42.5 2.5q-21 1 -29.5 14t-7 27t12.5 25.5t29 10.5q9 0 16.5 6.5t12.5 17.5l9 333q-5 2 -11 2t-13 1q-12 2 -19.5 15.5t-7.5 29t8 28t27 11.5q1 0 13.5 0.5t27 -3.5t27 -15.5t14.5 -34.5q17 20 49.5 23.5
t66 -9t59.5 -39t29 -66.5q2 -26 3.5 -59t2.5 -68t1.5 -69.5t0.5 -62.5q12 -14 24 -13zM176 594q-9 -9 -23 -8.5t-23 8.5t-6.5 21.5t26.5 31.5q33 25 65 23.5t55 -22.5q11 -11 27.5 -6.5t34.5 18.5q10 8 23 5.5t20.5 -11.5t6 -22.5t-20.5 -26.5q-34 -24 -66.5 -24t-53.5 23
q-8 9 -28 7.5t-37 -17.5z" />
    <glyph glyph-name="Oslash" unicode="&#xd8;" horiz-adv-x="498" 
d="M445 477q5 -32 6.5 -67t1.5 -72q0 -72 -9.5 -133.5t-35 -106.5t-69.5 -71t-112 -26q-62 0 -102.5 30.5t-64.5 82.5q17 16 46.5 43.5t66 62t76.5 71.5t77 72.5t68 65t51 48.5zM428 545q-3 -2 -6.5 -4.5t-7.5 -6.5q-11 -12 -37 -37.5t-60 -59t-73 -72t-76.5 -75t-70 -68.5
t-53.5 -53q-15 78 -10 172q2 57 20 111.5t48 97.5t69.5 69t85.5 28q68 1 108.5 -26.5t62.5 -75.5z" />
    <glyph glyph-name="oslash" unicode="&#xf8;" 
d="M262 463q61 -12 91 -45q-26 -26 -65 -64t-82 -80t-84.5 -83t-73.5 -72q-5 32 -4.5 67t5.5 70q7 51 23.5 93t43.5 70t63.5 40.5t82.5 3.5zM394 243q2 -58 -17 -104.5t-52 -78.5t-75.5 -48t-86.5 -11q-35 4 -59 21.5t-39 46.5q30 28 71.5 67.5t86 81t86.5 81.5t74 70
q5 -26 7 -57.5t4 -68.5z" />
    <glyph glyph-name="germandbls" unicode="&#xdf;" horiz-adv-x="490" 
d="M56 67q3 121 6 223q1 43 2.5 86.5t2.5 80.5t2 65t2 41q1 25 7.5 49t18.5 43t29 30.5t40 11.5q13 0 30.5 -1t36 -3.5t37.5 -7t34 -10.5q18 -7 32.5 -21.5t25 -33.5t17.5 -41.5t10 -45.5q2 -20 -2.5 -40t-12 -38t-15.5 -32.5t-13 -21.5q-18 -27 -13 -41.5t19 -27.5
q6 -6 21 -19t30.5 -34.5t28 -52t14.5 -70.5q2 -45 -17.5 -75t-48 -48.5t-58 -26.5t-47.5 -8t-28.5 13t-12 29t9 31t34.5 18q48 8 69.5 25t20.5 46q-2 39 -26.5 73t-66.5 54q-40 20 -42 52t21 60q14 17 26.5 43t18.5 53t3 51.5t-21 38.5t-39 20t-40 2.5t-31.5 -18
t-13.5 -41.5q-1 -13 -1 -50v-85.5t-0.5 -104t-1 -106.5t-1.5 -91t-2 -59q-2 -28 -17.5 -38.5t-32.5 -7t-31 19.5t-14 41z" />
    <glyph glyph-name="AE" unicode="&#xc6;" horiz-adv-x="688" 
d="M634 53q0 -8 -1 -15q-1 -6 -1.5 -12.5t0.5 -10.5q1 -9 -6.5 -21t-21.5 -11h-30.5t-46 0.5t-53.5 0.5h-53h-44h-26q-19 0 -27 10t-7.5 22.5t8 23.5t19.5 13q17 2 26 7.5t14 15.5q-7 21 -14 41.5t-9 26.5q-3 10 -13.5 13.5t-17.5 3.5q-3 0 -21 1t-39 1.5t-39.5 1.5t-22.5 1
q-8 0 -16 -6t-10 -16q-1 -5 -1 -7.5t-0.5 -6.5t-0.5 -11t-1 -20q5 -12 14 -18t27 -8q12 -2 20 -13t8.5 -24t-8 -23t-27.5 -9q-12 1 -50.5 1t-83.5 4q-23 1 -32 13.5t-7 27t13.5 26t29.5 10.5q15 0 27 17q3 13 11.5 48.5t19.5 83t23.5 102.5t24 106t20.5 93.5t13 65.5
q8 48 24 64t36 16q10 1 23.5 0.5t27.5 -0.5q61 0 112 -1q21 0 42.5 -0.5t39.5 -1t30.5 -1t17.5 -1.5q17 -5 30.5 -12.5t14.5 -20.5q1 -7 1.5 -12.5t0.5 -10.5v-9v-19q1 -19 -9 -27t-22.5 -7.5t-24 8t-12.5 19.5q-1 9 -5 18l-231 -2q0 -2 0.5 -3.5t0.5 -3.5l2 -8t2 -9
l72 -206l106 -2q2 4 3 8.5t3 9.5q1 10 12.5 17t24 7t22.5 -7t9 -23v-17v-70h-1q1 -5 1 -8.5v-5.5q1 -19 -9 -27t-23 -7.5t-24 8t-13 19.5q-2 16 -7 24l-99 3q24 -67 43 -121q8 -23 15.5 -45t14 -39.5t10.5 -28.5t4 -12l72 -1q5 8 6 20q2 10 13 16.5t24 7t23 -6.5t9 -23v-15
v0z" />
    <glyph glyph-name="ae" unicode="&#xe6;" horiz-adv-x="910" 
d="M793 125q8 15 21 19t23.5 -1.5t14.5 -19t-6 -33.5q-20 -40 -66.5 -65.5t-128.5 -25.5q-55 0 -99 23t-73 66q-4 -13 -13 -28t-31 -36q-12 -10 -29.5 -16t-38.5 -9.5t-44 -5t-44 -1.5q-14 0 -36.5 0.5t-47 4t-49.5 12t-45.5 24.5t-33.5 41.5t-14 63.5q-2 56 19 95.5
t53 63.5t69.5 34t69.5 9q63 -3 107 -12.5t64 -19.5q0 28 -4.5 56.5t-18 52t-38.5 38t-67 16.5q-25 1 -50.5 -0.5t-46.5 -8t-34.5 -19t-15.5 -34.5q-1 -15 -13.5 -23t-27 -7.5t-26.5 10t-12 29.5q-1 23 11 45t39 39t70.5 26t105.5 7q68 -2 112 -29t66 -85q28 38 77 60.5
t124 24.5q43 1 72 -13t47.5 -36.5t27.5 -50.5t13 -54t4 -46.5v-29.5q0 -13 -6 -21.5t-15.5 -13.5t-21 -7t-23.5 -2q-8 0 -31.5 -0.5t-54.5 -1t-64.5 -1t-62 -1t-47.5 -1l-19 -0.5v-1q-1 -42 10 -71.5t31 -48t49 -28t65 -10.5q18 -1 38 2.5t38.5 10.5t33.5 18t23 26z" />
    <glyph glyph-name="OE" unicode="&#x152;" horiz-adv-x="724" 
d="M395 624l-9 -230l107 -2q4 9 5 18q1 10 12.5 17t24 7t23 -7t9.5 -23q-1 -3 -1 -16v-71v-14q1 -19 -9 -26.5t-23 -7t-24 7.5t-13 19q-2 15 -6 24l-99 3l-3 -245l197 -2q5 8 6 20q1 10 12.5 17t24 7t23 -7t9.5 -23q-1 -3 -1 -15q-1 -8 -1 -15q-2 -13 0 -23q1 -9 -6.5 -21
t-21.5 -11h-19.5t-40.5 0.5t-53.5 1t-59.5 0.5q-71 1 -160 3q-15 0 -19 -1q-2 0 -2.5 0.5t-1.5 0.5q-5 -1 -10.5 -1h-11.5q-62 0 -102.5 31t-64.5 83.5t-32 121.5t-5 145q3 59 21 115t48 100t69.5 71t85.5 28h20q4 1 12 1h8t11 -1q81 0 147 -1q28 0 56 -0.5t51 -1t38.5 -1
t20.5 -1.5q17 -4 30.5 -12t14.5 -21q1 -7 1.5 -12.5t0.5 -10.5v-9v-19q1 -19 -9 -27t-22.5 -7.5t-24 8t-12.5 19.5q-1 9 -5 18z" />
    <glyph glyph-name="oe" unicode="&#x153;" horiz-adv-x="821" 
d="M708 159q8 15 21 19t23.5 -1.5t14.5 -19.5t-6 -34q-20 -40 -66.5 -65t-127.5 -25q-61 0 -108.5 27.5t-74.5 79.5q-31 -59 -86.5 -89.5t-116.5 -24.5q-44 4 -71.5 32t-41 69t-15.5 92t4 102q7 51 23.5 93t43.5 70t63.5 40.5t82.5 3.5q50 -10 77.5 -32.5t41.5 -58.5
q26 46 77.5 73.5t135.5 29.5q43 1 72 -13t47.5 -37t27.5 -50.5t13 -53.5t4 -47v-30q0 -13 -6 -21.5t-16 -13.5t-21.5 -7t-23.5 -2h-21t-35.5 -0.5t-45 -1t-49.5 -0.5q-58 -1 -128 -2q-1 -42 10 -72t31 -48.5t49 -28t65 -11.5q18 -1 38 2.5t38.5 11t33.5 18.5t23 26z" />
    <glyph glyph-name="Ydieresis" unicode="&#x178;" horiz-adv-x="494" 
d="M426 699q19 1 27 -9t7.5 -23t-8 -24t-19.5 -13q-18 -2 -33 -9l-117 -280l-7 -284q5 -13 14 -19t28 -9q12 -2 20 -13t8 -23.5t-8 -22.5t-27 -9q-12 0 -50.5 0.5t-83.5 3.5q-23 1 -34 13.5t-11.5 26.5t9.5 25.5t28 10.5q8 0 17.5 2t14.5 10l6 260l-124 298q-7 2 -9.5 3
t-10.5 2q-12 2 -19.5 13t-8 24t7.5 23t27 9q12 -1 37.5 -1t70.5 -3q23 -2 33.5 -14.5t10 -27t-11 -26t-28.5 -10.5q-8 1 -18 -7l74 -180l80 194q-11 7 -18 7q-18 -1 -29.5 10.5t-13.5 25.5t7 26.5t31 14.5t43 3t39 1t30.5 0.5t18.5 0.5zM164 802q-15 -14 -38 -17t-40 16
q-9 9 -10 22t4 25t15 21t24 10q23 2 36 -7t17.5 -22.5t2 -27t-10.5 -20.5zM408 819q-16 -14 -38.5 -17t-39.5 15q-9 9 -10 22t4 25.5t15 21.5t23 10q23 2 36 -7.5t17.5 -22.5t2 -26.5t-9.5 -20.5z" />
    <glyph glyph-name="ydieresis" unicode="&#xff;" horiz-adv-x="482" 
d="M406 484q18 1 26 -9t7.5 -22.5t-8 -24t-19.5 -12.5q-5 -1 -13 -3v-102t-2 -127.5t-6.5 -137.5t-12 -132t-19 -110.5t-27.5 -73.5q-20 -32 -45.5 -47.5t-52.5 -19.5t-53.5 1.5t-49.5 15t-40.5 21t-26.5 20.5q-8 7 -5.5 20.5t13.5 23.5t28.5 12t40.5 -12q44 -29 75 -23.5
t50.5 36.5t28.5 84t8 121q-73 -3 -119.5 8.5t-73 33t-36.5 50t-10 59.5v280q0 41 13 57.5t28 15.5t28 -16t13 -36q-2 -36 -3 -77q-1 -35 -1.5 -82t-0.5 -101q0 -53 12 -77.5t33.5 -33t52 -7.5t67.5 0l16 353q-1 31 6.5 50.5t31.5 24.5q16 0 30 -0.5t16 -0.5zM162 600
q-17 -11 -40 -10.5t-37 21.5q-7 10 -6 23t8 24t18 18.5t25 6.5q23 -2 34.5 -13t13.5 -24.5t-2.5 -26.5t-13.5 -19zM406 578q-17 -12 -40.5 -11t-37.5 22q-7 10 -6 23t8 24t18 18.5t25 6.5q23 -2 34.5 -13t14 -24.5t-2 -26.5t-13.5 -19z" />
    <glyph glyph-name="adieresis" unicode="&#xe4;" horiz-adv-x="611" 
d="M162 431q-1 -15 -13.5 -23t-27 -7.5t-26.5 10t-13 29.5q0 23 12 45t39 39t70 26t105 7q53 -2 91.5 -18.5t63.5 -50.5t36 -87.5t9 -128.5q-2 -31 -3.5 -54.5t-3.5 -40.5q-2 -19 -4 -34q-1 -17 3 -29q3 -11 11 -19.5t23 -8.5t23 -10.5t8.5 -23t-6.5 -23t-22 -10.5
q-30 0 -53.5 6.5t-46.5 20.5q-12 -10 -29.5 -16.5t-38.5 -10t-44 -4.5t-45 -1q-14 0 -36 0.5t-47 4t-49.5 12t-45 24.5t-34 41.5t-14.5 63.5q-2 56 19 95.5t53.5 63.5t69.5 34t69 9q64 -3 108 -12.5t64 -20.5q0 29 -4.5 57.5t-18 52t-39 38t-67.5 16.5q-25 1 -50 -0.5
t-46 -8t-34.5 -19t-15.5 -34.5zM191 710q23 -3 34 -14.5t13 -25.5t-3 -27t-14 -18q-18 -11 -40.5 -9t-36.5 23q-7 10 -5.5 23t9 24.5t19 18t24.5 5.5zM433 678q23 -3 34 -14.5t13 -25.5t-3 -27t-14 -18q-18 -11 -40.5 -9t-36.5 23q-7 10 -5.5 23t9 24.5t19 18t24.5 5.5z" />
    <glyph glyph-name="acircumflex" unicode="&#xe2;" horiz-adv-x="595" 
d="M174 465q-1 -15 -13.5 -23t-27 -7.5t-26.5 10t-12 29.5q-1 23 11 45t39 39t70.5 26t105.5 7q53 -2 91.5 -18.5t63 -50.5t35.5 -87.5t9 -128.5q-3 -63 -6 -95q-2 -19 -4 -34q-1 -17 3 -29q3 -11 10.5 -19.5t22.5 -8.5t23 -10.5t8.5 -23t-6.5 -23t-22 -10.5q-29 0 -53 6.5
t-47 20.5q-12 -10 -29.5 -16.5t-38.5 -10t-44 -5t-44 -1.5q-15 0 -37 0.5t-46.5 4t-49.5 12t-45.5 25t-33.5 42t-14 63.5q-2 56 19 95.5t53 63.5t69.5 34t69.5 9q63 -4 107 -13t64 -20q0 29 -4.5 57.5t-18 52t-38.5 38t-67 16.5q-25 1 -50.5 -0.5t-46.5 -8t-34.5 -19
t-15.5 -34.5zM223 654q-13 -12 -26.5 -11.5t-22.5 8t-10 20t10 24.5t24.5 26t26.5 27t25 24.5t20 18.5q17 14 38.5 15t41.5 -23q17 -23 37 -52.5t31 -48.5q7 -13 3.5 -25t-13.5 -18.5t-22.5 -5.5t-22.5 13q-8 9 -18.5 22.5t-19.5 26.5l-22 30q-16 -14 -31 -27
q-13 -11 -26.5 -23.5t-22.5 -20.5z" />
    <glyph glyph-name="agrave" unicode="&#xe0;" horiz-adv-x="591" 
d="M162 393q-1 -15 -13.5 -23t-27 -7.5t-26.5 10t-12 29.5q-1 23 11 45t39 39t70.5 26t105.5 7q53 -2 91.5 -18.5t63 -50.5t35.5 -87.5t9 -128.5q-1 -31 -2.5 -54.5t-3.5 -40.5q-2 -19 -4 -34q-1 -17 3 -29q3 -11 10.5 -19.5t22.5 -8.5t23 -10.5t9 -23t-6.5 -23t-22.5 -10.5
q-29 0 -53 6.5t-47 20.5q-12 -10 -29.5 -16.5t-38.5 -10t-44 -5t-44 -1.5q-15 0 -37 0.5t-46.5 4t-49.5 12t-45.5 25t-33.5 42t-14 63.5q-2 56 19 95.5t53 63.5t69.5 34t69.5 9q63 -4 107 -13t64 -20q0 29 -4.5 57.5t-18 52t-38.5 38t-67 16.5q-25 1 -50.5 -0.5t-46.5 -8
t-34.5 -19t-15.5 -34.5zM319 651q14 -14 15.5 -34t-11.5 -33t-38 -7t-56 38q-16 15 -24.5 26.5t-10.5 20t1 15.5t10 14q14 14 38 16t47 -23z" />
    <glyph glyph-name="aacute" unicode="&#xe1;" horiz-adv-x="591" 
d="M143 417q-1 -15 -13.5 -23t-27 -7.5t-26.5 10t-12 29.5q-1 23 11 45t39 39t70 26t105 7q53 -2 92 -18.5t63.5 -50.5t35.5 -87.5t9 -128.5q-2 -31 -3.5 -54t-3.5 -40q-2 -19 -4 -34q-1 -17 3 -29q3 -11 11 -20t23 -9t23 -10.5t8.5 -22.5t-6.5 -22.5t-22 -10.5
q-30 0 -53.5 6t-46.5 20q-12 -10 -29.5 -16t-38.5 -9.5t-44 -5t-45 -1.5q-14 0 -36 0.5t-46.5 4t-49.5 12t-45.5 24.5t-33.5 41.5t-14 63.5q-2 56 19 95.5t53 63.5t69.5 34t69.5 9q63 -3 107 -12.5t64 -19.5q0 28 -4.5 56.5t-18 52t-39 38t-67.5 16.5q-25 1 -50 -0.5t-46 -8
t-34.5 -19t-15.5 -34.5zM304 668q-14 -14 -34.5 -15.5t-33.5 11.5q-12 13 -6 38t37 56t47 34.5t30 -10.5t16 -38t-23 -47z" />
    <glyph glyph-name="atilde" unicode="&#xe3;" horiz-adv-x="591" 
d="M143 417q-1 -15 -13.5 -23t-27 -7.5t-26.5 10t-12 29.5q-1 23 11 45t39 39t70 26t105 7q53 -2 92 -18.5t63.5 -50.5t35.5 -87.5t9 -128.5q-2 -31 -3.5 -54t-3.5 -40q-2 -19 -4 -34q-1 -17 3 -29q3 -11 11 -20t23 -9t23 -10.5t8.5 -22.5t-6.5 -22.5t-22 -10.5
q-30 0 -53.5 6t-46.5 20q-12 -10 -29.5 -16t-38.5 -9.5t-44 -5t-45 -1.5q-14 0 -36 0.5t-46.5 4t-49.5 12t-45.5 24.5t-33.5 41.5t-14 63.5q-2 56 19 95.5t53 63.5t69.5 34t69.5 9q63 -3 107 -12.5t64 -19.5q0 28 -4.5 56.5t-18 52t-39 38t-67.5 16.5q-25 1 -50 -0.5t-46 -8
t-34.5 -19t-15.5 -34.5zM378 719q10 8 23.5 5.5t21 -11.5t5.5 -22.5t-21 -26.5q-34 -24 -66 -24t-54 23q-8 8 -27.5 7t-36.5 -18q-9 -9 -23.5 -8t-23 9t-6.5 21.5t26 31.5q34 25 65.5 23.5t54.5 -22.5q11 -11 27.5 -7t34.5 19z" />
    <glyph glyph-name="aring" unicode="&#xe5;" horiz-adv-x="591" 
d="M143 417q-1 -15 -13.5 -23t-27 -7.5t-26.5 10t-12 29.5q-1 23 11 45t39 39t70 26t105 7q53 -2 92 -18.5t63.5 -50.5t35.5 -87.5t9 -128.5q-2 -31 -3.5 -54t-3.5 -40q-2 -19 -4 -34q-1 -17 3 -29q3 -11 11 -20t23 -9t23 -10.5t8.5 -22.5t-6.5 -22.5t-22 -10.5
q-30 0 -53.5 6t-46.5 20q-12 -10 -29.5 -16t-38.5 -9.5t-44 -5t-45 -1.5q-14 0 -36 0.5t-46.5 4t-49.5 12t-45.5 24.5t-33.5 41.5t-14 63.5q-2 56 19 95.5t53 63.5t69.5 34t69.5 9q63 -3 107 -12.5t64 -19.5q0 28 -4.5 56.5t-18 52t-39 38t-67.5 16.5q-25 1 -50 -0.5t-46 -8
t-34.5 -19t-15.5 -34.5zM298 785q42 -5 62 -26t23.5 -46t-6 -48.5t-25.5 -32.5q-16 -10 -35.5 -14.5t-38.5 -2t-36 12.5t-29 29t-9.5 42.5t15.5 43.5t34 32.5t45 9.5z" />
    <glyph glyph-name="egrave" unicode="&#xe8;" horiz-adv-x="514" 
d="M111 262q-1 -42 10 -72t31 -48.5t49 -28t65 -10.5q18 -1 38 2t38.5 10.5t33.5 18.5t23 26t21 19t23.5 -1.5t14.5 -19t-6 -33.5q-20 -40 -66.5 -65.5t-128.5 -25.5q-47 0 -85.5 16.5t-67 47.5t-44 76t-15.5 101q0 57 11.5 104.5t40 83t76.5 56t120 22.5q43 1 72 -13
t47 -37t27 -50.5t13 -53.5t4 -46.5v-29.5q0 -14 -6 -22.5t-15.5 -13t-21 -6.5t-23.5 -2q-6 0 -21 -0.5t-35.5 -1t-45 -1t-49.5 -0.5q-58 -1 -128 -2zM313 712q14 -14 15.5 -34.5t-11.5 -33.5q-13 -12 -38 -6t-56 37q-32 31 -35 47t11 30t38 16t47 -23z" />
    <glyph glyph-name="eacute" unicode="&#xe9;" horiz-adv-x="514" 
d="M111 262q-1 -42 10 -72t31 -48.5t49 -28t65 -10.5q18 -1 38 2t38.5 10.5t33.5 18.5t23 26t21 19t23.5 -1.5t14.5 -19t-6 -33.5q-20 -40 -66.5 -65.5t-128.5 -25.5q-47 0 -85.5 16.5t-67 47.5t-44 76t-15.5 101q0 57 11.5 104.5t40 83t76.5 56t120 22.5q43 1 72 -13
t47 -37t27 -50.5t13 -53.5t4 -46.5v-29.5q0 -14 -6 -22.5t-15.5 -13t-21 -6.5t-23.5 -2q-6 0 -21 -0.5t-35.5 -1t-45 -1t-49.5 -0.5q-58 -1 -128 -2zM266 668q-14 -14 -34.5 -15.5t-33.5 11.5q-12 13 -6 38t37 56t47 34.5t30 -10.5t16 -38t-23 -47z" />
    <glyph glyph-name="ecircumflex" unicode="&#xea;" horiz-adv-x="514" 
d="M111 262q-1 -42 10 -72t31 -48.5t49 -28t65 -10.5q18 -1 38 2t38.5 10.5t33.5 18.5t23 26t21 19t23.5 -1.5t14.5 -19t-6 -33.5q-20 -40 -66.5 -65.5t-128.5 -25.5q-47 0 -85.5 16.5t-67 47.5t-44 76t-15.5 101q0 57 11.5 104.5t40 83t76.5 56t120 22.5q43 1 72 -13
t47 -37t27 -50.5t13 -53.5t4 -46.5v-29.5q0 -14 -6 -22.5t-15.5 -13t-21 -6.5t-23.5 -2q-6 0 -21 -0.5t-35.5 -1t-45 -1t-49.5 -0.5q-58 -1 -128 -2zM190 627q-14 -12 -27.5 -11.5t-22.5 8t-10 20t10 24.5q23 25 51 53t45 43q17 14 38.5 14.5t41.5 -23.5q17 -22 37 -51.5
t31 -49.5q7 -13 3.5 -25t-13.5 -18.5t-22.5 -5.5t-22.5 13q-8 10 -18.5 23.5t-19.5 26.5l-22 30q-16 -14 -31 -27q-13 -11 -26 -23.5t-22 -20.5z" />
    <glyph glyph-name="edieresis" unicode="&#xeb;" horiz-adv-x="514" 
d="M111 262q-1 -42 10 -72t31 -48.5t49 -28t65 -10.5q18 -1 38 2t38.5 10.5t33.5 18.5t23 26t21 19t23.5 -1.5t14.5 -19t-6 -33.5q-20 -40 -66.5 -65.5t-128.5 -25.5q-47 0 -85.5 16.5t-67 47.5t-44 76t-15.5 101q0 57 11.5 104.5t40 83t76.5 56t120 22.5q43 1 72 -13
t47 -37t27 -50.5t13 -53.5t4 -46.5v-29.5q0 -14 -6 -22.5t-15.5 -13t-21 -6.5t-23.5 -2q-6 0 -21 -0.5t-35.5 -1t-45 -1t-49.5 -0.5q-58 -1 -128 -2zM137 716q23 -3 34 -14.5t13 -25.5t-3 -27t-14 -18q-18 -11 -40.5 -9t-36.5 23q-7 11 -5.5 24t9 24t19 17.5t24.5 5.5z
M379 684q23 -3 34 -14.5t13 -25t-3 -26.5t-14 -19q-18 -11 -40.5 -9t-36.5 24q-7 10 -5.5 23t9 24t19 17.5t24.5 5.5z" />
    <glyph glyph-name="igrave" unicode="&#xec;" horiz-adv-x="279" 
d="M222 66q-20 3 -28.5 9.5t-13.5 20.5q1 28 2.5 66t2.5 74.5t2 65.5t1 39q0 33 -18 55t-44 27q-3 0 -7 1q-3 0 -6 0.5t-4 0.5q-19 1 -26 -10t-6 -25t9 -26.5t20 -13.5q5 -1 9 -2l8 -2l-9 -253q-5 -6 -10.5 -10t-12.5 -4q-18 1 -29 -10.5t-12.5 -25.5t7 -27t29.5 -14
q22 -2 42.5 -3t38 -1t30 -0.5t18.5 -0.5q18 -1 26 9t7.5 23t-7.5 24t-19 13zM161 576q14 -14 15.5 -34t-11.5 -33t-37.5 -7t-56.5 38q-32 31 -35 46.5t11 29.5q7 7 17 11.5t21.5 4.5t23.5 -5.5t23 -17.5z" />
    <glyph glyph-name="iacute" unicode="&#xed;" horiz-adv-x="279" 
d="M228 98q-20 3 -28.5 10t-13.5 21q1 28 2.5 65.5t2.5 74t2 65.5t1 39q0 33 -18 55t-44 27q-3 0 -7 1q-3 0 -6 0.5t-4 0.5q-19 1 -26 -10t-6 -25t8.5 -26.5t19.5 -13.5q5 -1 9.5 -2t7.5 -2l-8 -253q-5 -6 -10.5 -10t-12.5 -4q-18 1 -29 -10.5t-13 -25.5t6.5 -27t30.5 -14
q22 -2 42.5 -2.5t38 -1t30 -0.5h18.5q18 -1 26 9t7.5 22.5t-7.5 23.5t-19 13zM175 555q-14 -14 -34.5 -15t-33.5 11q-12 13 -6 38t37 57q16 16 27 24t20 10.5t16 -0.5t14 -10q14 -14 16 -38.5t-23 -46.5z" />
    <glyph glyph-name="icircumflex" unicode="&#xee;" horiz-adv-x="279" 
d="M234 33q-20 3 -28.5 10t-13.5 21q1 28 2.5 65.5t2.5 74t2 65.5t1 39q0 33 -18 55.5t-44 26.5q-3 0 -7 1q-3 0 -6 0.5t-4 0.5q-19 1 -26 -10t-6 -25t8.5 -26.5t19.5 -13.5q12 -2 18 -4l-9 -252q-10 -15 -23 -14q-18 1 -29 -10.5t-13 -26t6.5 -27t30.5 -14.5t42.5 -2.5
t38 -1t30 -0.5h18.5q18 -1 26 9t7.5 22.5t-7.5 23.5t-19 13zM87 448q-14 -12 -27.5 -11.5t-22 8t-10 20t10.5 24.5q23 25 50.5 53t44.5 43q17 14 38.5 14.5t41.5 -23.5q18 -22 37.5 -51.5t30.5 -49.5q7 -13 3.5 -25t-13 -18.5t-22 -5.5t-22.5 13q-8 10 -18 23.5t-20 26.5
q-11 15 -23 30q-16 -14 -31 -27q-13 -11 -26 -23.5t-22 -20.5z" />
    <glyph glyph-name="idieresis" unicode="&#xef;" horiz-adv-x="332" 
d="M260 79q12 -2 19 -13t7.5 -23.5t-7.5 -22.5t-26 -9q-12 0 -48.5 0.5t-80.5 3.5q-22 2 -30.5 14.5t-6.5 27t13 26t28 10.5q14 -1 24 14l8 252q-4 2 -17 4q-12 1 -19.5 13.5t-8.5 26.5t6 25t26 10q1 0 3.5 -0.5t5.5 -0.5q4 -1 7 -1q27 -4 44.5 -26.5t17.5 -55.5
q0 -10 -0.5 -39t-1.5 -65.5t-2.5 -74t-2.5 -65.5q5 -14 13.5 -21t28.5 -10zM86 587q23 -3 34 -14.5t13 -25t-3 -26.5t-14 -19q-18 -11 -40.5 -9t-36.5 24q-7 10 -5.5 23t9 24t19 17.5t24.5 5.5zM257 597q23 -3 34 -14.5t13 -25.5t-3 -27t-14 -18q-18 -11 -40.5 -9t-36.5 23
q-7 10 -5.5 23t9 24.5t19 18t24.5 5.5z" />
    <glyph glyph-name="ograve" unicode="&#xf2;" 
d="M261 502q46 -9 73.5 -29t42 -52.5t19.5 -77t7 -101.5q2 -58 -17 -104.5t-51.5 -78.5t-75 -48t-86.5 -11q-44 4 -71.5 31.5t-41.5 69t-16 92.5t5 102t23.5 93t43 70t63 40.5t82.5 3.5zM278 712q14 -14 15.5 -34.5t-11.5 -33.5q-13 -12 -38 -6t-56 37q-32 31 -35 47t11 30
t38 16t47 -23z" />
    <glyph glyph-name="oacute" unicode="&#xf3;" 
d="M261 502q46 -9 73.5 -29t42 -52.5t19.5 -77t7 -101.5q2 -58 -17 -104.5t-51.5 -78.5t-75 -48t-86.5 -11q-44 4 -71.5 31.5t-41.5 69t-16 92.5t5 102t23.5 93t43 70t63 40.5t82.5 3.5zM231 668q-14 -14 -34.5 -15.5t-33.5 11.5q-12 13 -6 38t37 56t47 34.5t30 -10.5
t16 -38t-23 -47z" />
    <glyph glyph-name="ocircumflex" unicode="&#xf4;" 
d="M261 502q46 -9 73.5 -29t42 -52.5t19.5 -77t7 -101.5q2 -58 -17 -104.5t-51.5 -78.5t-75 -48t-86.5 -11q-44 4 -71.5 31.5t-41.5 69t-16 92.5t5 102t23.5 93t43 70t63 40.5t82.5 3.5zM155 627q-14 -12 -27.5 -11.5t-22.5 8t-10 20t10 24.5q23 25 51 53t45 43
q17 14 38.5 14.5t41.5 -23.5q17 -22 37 -51.5t31 -49.5q7 -13 3.5 -25t-13.5 -18.5t-22.5 -5.5t-22.5 13q-8 10 -18.5 23.5t-19.5 26.5l-22 30q-16 -14 -31 -27q-13 -11 -26 -23.5t-22 -20.5z" />
    <glyph glyph-name="otilde" unicode="&#xf5;" 
d="M261 502q46 -9 73.5 -29t42 -52.5t19.5 -77t7 -101.5q2 -58 -17 -104.5t-51.5 -78.5t-75 -48t-86.5 -11q-44 4 -71.5 31.5t-41.5 69t-16 92.5t5 102t23.5 93t43 70t63 40.5t82.5 3.5zM305 719q10 8 23.5 5.5t21 -11.5t5.5 -22.5t-21 -26.5q-34 -24 -66 -24t-54 23
q-8 8 -27.5 7t-36.5 -18q-9 -9 -23.5 -8t-23 9t-6.5 21.5t26 31.5q34 25 65.5 23.5t54.5 -22.5q11 -11 27.5 -7t34.5 19z" />
    <glyph glyph-name="odieresis" unicode="&#xf6;" 
d="M261 502q46 -9 73.5 -29t42 -52.5t19.5 -77t7 -101.5q2 -58 -17 -104.5t-51.5 -78.5t-75 -48t-86.5 -11q-44 4 -71.5 31.5t-41.5 69t-16 92.5t5 102t23.5 93t43 70t63 40.5t82.5 3.5zM104 716q23 -3 34 -14.5t13 -25.5t-3 -27t-14 -18q-18 -11 -40.5 -9t-36.5 23
q-7 11 -5.5 24t9 24t19 17.5t24.5 5.5zM346 684q23 -3 34 -14.5t13 -25t-3 -26.5t-14 -19q-18 -11 -40.5 -9t-36.5 24q-7 10 -5.5 23t9 24t19 17.5t24.5 5.5z" />
    <glyph glyph-name="ugrave" unicode="&#xf9;" horiz-adv-x="477" 
d="M136 479q-2 -61 -3.5 -115t-2.5 -119q-1 -40 2 -67t11.5 -43t24.5 -23t41 -7q31 0 51.5 12.5t32.5 32.5t18 45t8 51q2 25 4 55.5t3 61.5t2 60t1 52q0 25 14 37t30 11t29.5 -13t13.5 -34q0 -15 -1.5 -43t-4 -62.5t-5.5 -72.5t-5.5 -73t-4 -64t-1.5 -45q23 0 36 -12.5
t12.5 -28t-17 -29t-53.5 -15.5q-14 -1 -25 3.5t-18.5 12t-11 15.5t-3.5 15q-12 -18 -39 -29.5t-83 -11.5q-42 0 -69 11.5t-42.5 32t-21.5 49t-6 64.5q0 35 1 73.5t2 75.5t2 70.5t1 57.5t12 35.5t26.5 12t26.5 -9.5t12 -29zM294 712q14 -14 15.5 -34.5t-11.5 -33.5
q-13 -12 -38 -6t-56 37q-32 31 -35 47t11 30t38 16t47 -23z" />
    <glyph glyph-name="uacute" unicode="&#xfa;" horiz-adv-x="477" 
d="M136 479q-2 -61 -3.5 -115t-2.5 -119q-1 -40 2 -67t11.5 -43t24.5 -23t41 -7q31 0 51.5 12.5t32.5 32.5t18 45t8 51q2 25 4 55.5t3 61.5t2 60t1 52q0 25 14 37t30 11t29.5 -13t13.5 -34q0 -15 -1.5 -43t-4 -62.5t-5.5 -72.5t-5.5 -73t-4 -64t-1.5 -45q23 0 36 -12.5
t12.5 -28t-17 -29t-53.5 -15.5q-14 -1 -25 3.5t-18.5 12t-11 15.5t-3.5 15q-12 -18 -39 -29.5t-83 -11.5q-42 0 -69 11.5t-42.5 32t-21.5 49t-6 64.5q0 35 1 73.5t2 75.5t2 70.5t1 57.5t12 35.5t26.5 12t26.5 -9.5t12 -29zM247 668q-14 -14 -34.5 -15.5t-33.5 11.5
q-12 13 -6 38t37 56t47 34.5t30 -10.5t16 -38t-23 -47z" />
    <glyph glyph-name="ucircumflex" unicode="&#xfb;" horiz-adv-x="477" 
d="M136 479q-2 -61 -3.5 -115t-2.5 -119q-1 -40 2 -67t11.5 -43t24.5 -23t41 -7q31 0 51.5 12.5t32.5 32.5t18 45t8 51q2 25 4 55.5t3 61.5t2 60t1 52q0 25 14 37t30 11t29.5 -13t13.5 -34q0 -15 -1.5 -43t-4 -62.5t-5.5 -72.5t-5.5 -73t-4 -64t-1.5 -45q23 0 36 -12.5
t12.5 -28t-17 -29t-53.5 -15.5q-14 -1 -25 3.5t-18.5 12t-11 15.5t-3.5 15q-12 -18 -39 -29.5t-83 -11.5q-42 0 -69 11.5t-42.5 32t-21.5 49t-6 64.5q0 35 1 73.5t2 75.5t2 70.5t1 57.5t12 35.5t26.5 12t26.5 -9.5t12 -29zM171 627q-14 -12 -27.5 -11.5t-22.5 8t-10 20
t10 24.5q23 25 51 53t45 43q17 14 38.5 14.5t41.5 -23.5q17 -22 37 -51.5t31 -49.5q7 -13 3.5 -25t-13.5 -18.5t-22.5 -5.5t-22.5 13q-8 10 -18.5 23.5t-19.5 26.5l-22 30q-16 -14 -31 -27q-13 -11 -26 -23.5t-22 -20.5z" />
    <glyph glyph-name="udieresis" unicode="&#xfc;" horiz-adv-x="477" 
d="M136 479q-2 -61 -3.5 -115t-2.5 -119q-1 -40 2 -67t11.5 -43t24.5 -23t41 -7q31 0 51.5 12.5t32.5 32.5t18 45t8 51q2 25 4 55.5t3 61.5t2 60t1 52q0 25 14 37t30 11t29.5 -13t13.5 -34q0 -15 -1.5 -43t-4 -62.5t-5.5 -72.5t-5.5 -73t-4 -64t-1.5 -45q23 0 36 -12.5
t12.5 -28t-17 -29t-53.5 -15.5q-14 -1 -25 3.5t-18.5 12t-11 15.5t-3.5 15q-12 -18 -39 -29.5t-83 -11.5q-42 0 -69 11.5t-42.5 32t-21.5 49t-6 64.5q0 35 1 73.5t2 75.5t2 70.5t1 57.5t12 35.5t26.5 12t26.5 -9.5t12 -29zM120 716q23 -3 34 -14.5t13 -25.5t-3 -27t-14 -18
q-18 -11 -40.5 -9t-36.5 23q-7 11 -5.5 24t9 24t19 17.5t24.5 5.5zM362 684q23 -3 34 -14.5t13 -25t-3 -26.5t-14 -19q-18 -11 -40.5 -9t-36.5 24q-7 10 -5.5 23t9 24t19 17.5t24.5 5.5z" />
    <glyph glyph-name="Agrave" unicode="&#xc0;" horiz-adv-x="546" 
d="M470 81q18 1 29 -10.5t13 -26t-6.5 -27t-30.5 -14.5t-43 -2.5t-39 -0.5t-31 -0.5t-19 -0.5q-19 -1 -26.5 9t-7 22.5t8 23.5t19.5 13q17 3 25.5 8t13.5 16q-7 20 -13.5 41t-8.5 26q-4 11 -14.5 14.5t-16.5 3.5q-3 0 -21 0.5t-39 1.5t-39.5 1.5t-22.5 0.5q-8 0 -16.5 -5.5
t-10.5 -16.5q-1 -5 -1 -7.5v-6t-0.5 -11t-1.5 -20.5q5 -11 14 -17t28 -9q12 -2 19.5 -13t8 -23.5t-7.5 -22.5t-27 -9q-12 0 -51 0.5t-84 3.5q-23 2 -31.5 14.5t-6.5 27t13.5 26t29.5 10.5q15 -1 27 17q3 13 11.5 48.5t19.5 83t23 102t23.5 106t20.5 94t13 65.5q7 37 18.5 60
t25.5 25t28 -19.5t26 -72.5q6 -26 14.5 -61.5t19 -76t21.5 -84t22 -84.5q26 -97 53 -203q5 -9 12.5 -15t15.5 -5zM329 912q14 -14 15.5 -34.5t-11.5 -33.5q-13 -12 -38 -6t-56 37q-32 31 -35 47t11 30t38 16t47 -23z" />
    <glyph glyph-name="Aacute" unicode="&#xc1;" horiz-adv-x="546" 
d="M470 81q18 1 29 -10.5t13 -26t-6.5 -27t-30.5 -14.5t-43 -2.5t-39 -0.5t-31 -0.5t-19 -0.5q-19 -1 -26.5 9t-7 22.5t8 23.5t19.5 13q17 3 25.5 8t13.5 16q-7 20 -13.5 41t-8.5 26q-4 11 -14.5 14.5t-16.5 3.5q-3 0 -21 0.5t-39 1.5t-39.5 1.5t-22.5 0.5q-8 0 -16.5 -5.5
t-10.5 -16.5q-1 -5 -1 -7.5v-6t-0.5 -11t-1.5 -20.5q5 -11 14 -17t28 -9q12 -2 19.5 -13t8 -23.5t-7.5 -22.5t-27 -9q-12 0 -51 0.5t-84 3.5q-23 2 -31.5 14.5t-6.5 27t13.5 26t29.5 10.5q15 -1 27 17q3 13 11.5 48.5t19.5 83t23 102t23.5 106t20.5 94t13 65.5q7 37 18.5 60
t25.5 25t28 -19.5t26 -72.5q6 -26 14.5 -61.5t19 -76t21.5 -84t22 -84.5q26 -97 53 -203q5 -9 12.5 -15t15.5 -5zM282 868q-14 -14 -34.5 -15.5t-33.5 11.5q-12 13 -6 38t37 56t47 34.5t30 -10.5t16 -38t-23 -47z" />
    <glyph glyph-name="Acircumflex" unicode="&#xc2;" horiz-adv-x="546" 
d="M470 81q18 1 29 -10.5t13 -26t-6.5 -27t-30.5 -14.5t-43 -2.5t-39 -0.5t-31 -0.5t-19 -0.5q-19 -1 -26.5 9t-7 22.5t8 23.5t19.5 13q17 3 25.5 8t13.5 16q-7 20 -13.5 41t-8.5 26q-4 11 -14.5 14.5t-16.5 3.5q-3 0 -21 0.5t-39 1.5t-39.5 1.5t-22.5 0.5q-8 0 -16.5 -5.5
t-10.5 -16.5q-1 -5 -1 -7.5v-6t-0.5 -11t-1.5 -20.5q5 -11 14 -17t28 -9q12 -2 19.5 -13t8 -23.5t-7.5 -22.5t-27 -9q-12 0 -51 0.5t-84 3.5q-23 2 -31.5 14.5t-6.5 27t13.5 26t29.5 10.5q15 -1 27 17q3 13 11.5 48.5t19.5 83t23 102t23.5 106t20.5 94t13 65.5q7 37 18.5 60
t25.5 25t28 -19.5t26 -72.5q6 -26 14.5 -61.5t19 -76t21.5 -84t22 -84.5q26 -97 53 -203q5 -9 12.5 -15t15.5 -5zM206 827q-14 -12 -27.5 -11.5t-22.5 8t-10 20t10 24.5q23 25 51 53t45 43q17 14 38.5 14.5t41.5 -23.5q17 -22 37 -51.5t31 -49.5q7 -13 3.5 -25t-13.5 -18.5
t-22.5 -5.5t-22.5 13q-8 10 -18.5 23.5t-19.5 26.5l-22 30q-16 -14 -31 -27q-13 -11 -26 -23.5t-22 -20.5z" />
    <glyph glyph-name="Atilde" unicode="&#xc3;" horiz-adv-x="546" 
d="M470 81q18 1 29 -10.5t13 -26t-6.5 -27t-30.5 -14.5t-43 -2.5t-39 -0.5t-31 -0.5t-19 -0.5q-19 -1 -26.5 9t-7 22.5t8 23.5t19.5 13q17 3 25.5 8t13.5 16q-7 20 -13.5 41t-8.5 26q-4 11 -14.5 14.5t-16.5 3.5q-3 0 -21 0.5t-39 1.5t-39.5 1.5t-22.5 0.5q-8 0 -16.5 -5.5
t-10.5 -16.5q-1 -5 -1 -7.5v-6t-0.5 -11t-1.5 -20.5q5 -11 14 -17t28 -9q12 -2 19.5 -13t8 -23.5t-7.5 -22.5t-27 -9q-12 0 -51 0.5t-84 3.5q-23 2 -31.5 14.5t-6.5 27t13.5 26t29.5 10.5q15 -1 27 17q3 13 11.5 48.5t19.5 83t23 102t23.5 106t20.5 94t13 65.5q7 37 18.5 60
t25.5 25t28 -19.5t26 -72.5q6 -26 14.5 -61.5t19 -76t21.5 -84t22 -84.5q26 -97 53 -203q5 -9 12.5 -15t15.5 -5zM356 919q10 8 23.5 5.5t21 -11.5t5.5 -22.5t-21 -26.5q-34 -24 -66 -24t-54 23q-8 8 -27.5 7t-36.5 -18q-9 -9 -23.5 -8t-23 9t-6.5 21.5t26 31.5
q34 25 65.5 23.5t54.5 -22.5q11 -11 27.5 -7t34.5 19z" />
    <glyph glyph-name="Adieresis" unicode="&#xc4;" horiz-adv-x="546" 
d="M470 81q18 1 29 -10.5t13 -26t-6.5 -27t-30.5 -14.5t-43 -2.5t-39 -0.5t-31 -0.5t-19 -0.5q-19 -1 -26.5 9t-7 22.5t8 23.5t19.5 13q17 3 25.5 8t13.5 16q-7 20 -13.5 41t-8.5 26q-4 11 -14.5 14.5t-16.5 3.5q-3 0 -21 0.5t-39 1.5t-39.5 1.5t-22.5 0.5q-8 0 -16.5 -5.5
t-10.5 -16.5q-1 -5 -1 -7.5v-6t-0.5 -11t-1.5 -20.5q5 -11 14 -17t28 -9q12 -2 19.5 -13t8 -23.5t-7.5 -22.5t-27 -9q-12 0 -51 0.5t-84 3.5q-23 2 -31.5 14.5t-6.5 27t13.5 26t29.5 10.5q15 -1 27 17q3 13 11.5 48.5t19.5 83t23 102t23.5 106t20.5 94t13 65.5q7 37 18.5 60
t25.5 25t28 -19.5t26 -72.5q6 -26 14.5 -61.5t19 -76t21.5 -84t22 -84.5q26 -97 53 -203q5 -9 12.5 -15t15.5 -5zM153 916q23 -3 34 -14.5t13 -25.5t-3 -27t-14 -18q-18 -11 -40.5 -9t-36.5 23q-7 11 -5.5 24t9 24t19 17.5t24.5 5.5zM395 884q23 -3 34 -14.5t13 -25
t-3 -26.5t-14 -19q-18 -11 -40.5 -9t-36.5 24q-7 10 -5.5 23t9 24t19 17.5t24.5 5.5z" />
    <glyph glyph-name="Aring" unicode="&#xc5;" horiz-adv-x="546" 
d="M470 81q18 1 29 -10.5t13 -26t-6.5 -27t-30.5 -14.5t-43 -2.5t-39 -0.5t-31 -0.5t-19 -0.5q-19 -1 -26.5 9t-7 22.5t8 23.5t19.5 13q17 3 25.5 8t13.5 16q-7 20 -13.5 41t-8.5 26q-4 11 -14.5 14.5t-16.5 3.5q-3 0 -21 0.5t-39 1.5t-39.5 1.5t-22.5 0.5q-8 0 -16.5 -5.5
t-10.5 -16.5q-1 -5 -1 -7.5v-6t-0.5 -11t-1.5 -20.5q5 -11 14 -17t28 -9q12 -2 19.5 -13t8 -23.5t-7.5 -22.5t-27 -9q-12 0 -51 0.5t-84 3.5q-23 2 -31.5 14.5t-6.5 27t13.5 26t29.5 10.5q15 -1 27 17q3 13 11.5 48.5t19.5 83t23 102t23.5 106t20.5 94t13 65.5q7 37 18.5 60
t25.5 25t28 -19.5t26 -72.5q6 -26 14.5 -61.5t19 -76t21.5 -84t22 -84.5q26 -97 53 -203q5 -9 12.5 -15t15.5 -5zM275 985q42 -5 62 -26t23.5 -46t-6 -48.5t-25.5 -32.5q-16 -10 -35.5 -14.5t-38.5 -2t-36 12.5t-29 29t-9.5 42.5t15.5 43.5t34 32.5t45 9.5z" />
    <glyph glyph-name="Edieresis" unicode="&#xcb;" horiz-adv-x="516" 
d="M179 654l-9 -230l107 -2q4 9 5 18q1 10 12.5 17t24 7t23 -7t9.5 -23q-1 -3 -1 -16v-71v-14q1 -19 -9 -26.5t-23 -7t-24 7.5t-13 19q-2 15 -6 24l-99 3l-3 -245l197 -2q5 8 6 20q1 10 12.5 16.5t24 7t23 -6.5t9.5 -23q0 -2 -0.5 -6t-0.5 -9q-1 -8 -1 -15q-2 -13 0 -23
q1 -9 -6.5 -21t-21.5 -11h-19.5t-40.5 0.5t-53.5 1t-59.5 0.5q-71 1 -160 3q-15 0 -19 -1q-19 -1 -27 9t-7.5 23t8 24t19.5 13q13 1 22 6l21 547q-6 2 -17 4q-12 1 -19 12.5t-7.5 24.5t7 23.5t26.5 9.5h8t11 -1q81 0 147 -1q28 0 56 -0.5t51 -1t38.5 -1t20.5 -1.5
q18 -4 31 -12t14 -21q1 -7 1.5 -12.5t0.5 -10.5v-9v-19q1 -19 -9 -27t-22.5 -7.5t-24 8t-12.5 19.5q-1 9 -5 18zM138 916q23 -3 34 -14.5t13 -25.5t-3 -27t-14 -18q-18 -11 -40.5 -9t-36.5 23q-7 11 -5.5 24t9 24t19 17.5t24.5 5.5zM380 884q23 -3 34 -14.5t13 -25t-3 -26.5
t-14 -19q-18 -11 -40.5 -9t-36.5 24q-7 10 -5.5 23t9 24t19 17.5t24.5 5.5z" />
    <glyph glyph-name="Ecircumflex" unicode="&#xca;" horiz-adv-x="516" 
d="M179 654l-9 -230l107 -2q4 9 5 18q1 10 12.5 17t24 7t23 -7t9.5 -23q-1 -3 -1 -16v-71v-14q1 -19 -9 -26.5t-23 -7t-24 7.5t-13 19q-2 15 -6 24l-99 3l-3 -245l197 -2q5 8 6 20q1 10 12.5 16.5t24 7t23 -6.5t9.5 -23q0 -2 -0.5 -6t-0.5 -9q-1 -8 -1 -15q-2 -13 0 -23
q1 -9 -6.5 -21t-21.5 -11h-19.5t-40.5 0.5t-53.5 1t-59.5 0.5q-71 1 -160 3q-15 0 -19 -1q-19 -1 -27 9t-7.5 23t8 24t19.5 13q13 1 22 6l21 547q-6 2 -17 4q-12 1 -19 12.5t-7.5 24.5t7 23.5t26.5 9.5h8t11 -1q81 0 147 -1q28 0 56 -0.5t51 -1t38.5 -1t20.5 -1.5
q18 -4 31 -12t14 -21q1 -7 1.5 -12.5t0.5 -10.5v-9v-19q1 -19 -9 -27t-22.5 -7.5t-24 8t-12.5 19.5q-1 9 -5 18zM191 827q-14 -12 -27.5 -11.5t-22.5 8t-10 20t10 24.5q23 25 51 53t45 43q17 14 38.5 14.5t41.5 -23.5q17 -22 37 -51.5t31 -49.5q7 -13 3.5 -25t-13.5 -18.5
t-22.5 -5.5t-22.5 13q-8 10 -18.5 23.5t-19.5 26.5l-22 30q-16 -14 -31 -27q-13 -11 -26 -23.5t-22 -20.5z" />
    <glyph glyph-name="Eacute" unicode="&#xc9;" horiz-adv-x="516" 
d="M179 654l-9 -230l107 -2q4 9 5 18q1 10 12.5 17t24 7t23 -7t9.5 -23q-1 -3 -1 -16v-71v-14q1 -19 -9 -26.5t-23 -7t-24 7.5t-13 19q-2 15 -6 24l-99 3l-3 -245l197 -2q5 8 6 20q1 10 12.5 16.5t24 7t23 -6.5t9.5 -23q0 -2 -0.5 -6t-0.5 -9q-1 -8 -1 -15q-2 -13 0 -23
q1 -9 -6.5 -21t-21.5 -11h-19.5t-40.5 0.5t-53.5 1t-59.5 0.5q-71 1 -160 3q-15 0 -19 -1q-19 -1 -27 9t-7.5 23t8 24t19.5 13q13 1 22 6l21 547q-6 2 -17 4q-12 1 -19 12.5t-7.5 24.5t7 23.5t26.5 9.5h8t11 -1q81 0 147 -1q28 0 56 -0.5t51 -1t38.5 -1t20.5 -1.5
q18 -4 31 -12t14 -21q1 -7 1.5 -12.5t0.5 -10.5v-9v-19q1 -19 -9 -27t-22.5 -7.5t-24 8t-12.5 19.5q-1 9 -5 18zM267 868q-14 -14 -34.5 -15.5t-33.5 11.5q-12 13 -6 38t37 56t47 34.5t30 -10.5t16 -38t-23 -47z" />
    <glyph glyph-name="Egrave" unicode="&#xc8;" horiz-adv-x="516" 
d="M179 654l-9 -230l107 -2q4 9 5 18q1 10 12.5 17t24 7t23 -7t9.5 -23q-1 -3 -1 -16v-71v-14q1 -19 -9 -26.5t-23 -7t-24 7.5t-13 19q-2 15 -6 24l-99 3l-3 -245l197 -2q5 8 6 20q1 10 12.5 16.5t24 7t23 -6.5t9.5 -23q0 -2 -0.5 -6t-0.5 -9q-1 -8 -1 -15q-2 -13 0 -23
q1 -9 -6.5 -21t-21.5 -11h-19.5t-40.5 0.5t-53.5 1t-59.5 0.5q-71 1 -160 3q-15 0 -19 -1q-19 -1 -27 9t-7.5 23t8 24t19.5 13q13 1 22 6l21 547q-6 2 -17 4q-12 1 -19 12.5t-7.5 24.5t7 23.5t26.5 9.5h8t11 -1q81 0 147 -1q28 0 56 -0.5t51 -1t38.5 -1t20.5 -1.5
q18 -4 31 -12t14 -21q1 -7 1.5 -12.5t0.5 -10.5v-9v-19q1 -19 -9 -27t-22.5 -7.5t-24 8t-12.5 19.5q-1 9 -5 18zM314 912q14 -14 15.5 -34.5t-11.5 -33.5q-13 -12 -38 -6t-56 37q-32 31 -35 47t11 30t38 16t47 -23z" />
    <glyph glyph-name="Igrave" unicode="&#xcc;" horiz-adv-x="288" 
d="M206 82q12 -2 19.5 -13t8 -24t-7.5 -23t-27 -9q-12 1 -50.5 1t-84.5 3q-23 2 -31.5 14.5t-6.5 27t13.5 26t29.5 10.5q8 -1 14 3.5t11 11.5l5 531q-5 4 -9.5 6.5t-10.5 1.5q-18 -1 -29 10.5t-13 26t7 27t31 14.5q45 3 82 3.5t49 0.5q19 1 27 -9t7.5 -22.5t-8 -24
t-19.5 -12.5q-16 -2 -24.5 -7t-13.5 -14l-12 -533q6 -12 15 -18.5t28 -8.5zM200 912q14 -14 15.5 -34.5t-11.5 -33.5q-13 -12 -38 -6t-56 37q-32 31 -35 47t11 30t38 16t47 -23z" />
    <glyph glyph-name="Iacute" unicode="&#xcd;" horiz-adv-x="288" 
d="M206 82q12 -2 19.5 -13t8 -24t-7.5 -23t-27 -9q-12 1 -50.5 1t-84.5 3q-23 2 -31.5 14.5t-6.5 27t13.5 26t29.5 10.5q8 -1 14 3.5t11 11.5l5 531q-5 4 -9.5 6.5t-10.5 1.5q-18 -1 -29 10.5t-13 26t7 27t31 14.5q45 3 82 3.5t49 0.5q19 1 27 -9t7.5 -22.5t-8 -24
t-19.5 -12.5q-16 -2 -24.5 -7t-13.5 -14l-12 -533q6 -12 15 -18.5t28 -8.5zM153 868q-14 -14 -34.5 -15.5t-33.5 11.5q-12 13 -6 38t37 56t47 34.5t30 -10.5t16 -38t-23 -47z" />
    <glyph glyph-name="Icircumflex" unicode="&#xce;" horiz-adv-x="288" 
d="M206 82q12 -2 19.5 -13t8 -24t-7.5 -23t-27 -9q-12 1 -50.5 1t-84.5 3q-23 2 -31.5 14.5t-6.5 27t13.5 26t29.5 10.5q8 -1 14 3.5t11 11.5l5 531q-5 4 -9.5 6.5t-10.5 1.5q-18 -1 -29 10.5t-13 26t7 27t31 14.5q45 3 82 3.5t49 0.5q19 1 27 -9t7.5 -22.5t-8 -24
t-19.5 -12.5q-16 -2 -24.5 -7t-13.5 -14l-12 -533q6 -12 15 -18.5t28 -8.5zM78 827q-14 -12 -27.5 -11.5t-22.5 8t-10 20t10 24.5q23 25 51 53t45 43q17 14 38.5 14.5t41.5 -23.5q17 -22 37 -51.5t31 -49.5q7 -13 3.5 -25t-13.5 -18.5t-22.5 -5.5t-22.5 13q-8 10 -18.5 23.5
t-19.5 26.5l-22 30q-16 -14 -31 -27q-13 -11 -26 -23.5t-22 -20.5z" />
    <glyph glyph-name="Idieresis" unicode="&#xcf;" horiz-adv-x="288" 
d="M206 82q12 -2 19.5 -13t8 -24t-7.5 -23t-27 -9q-12 1 -50.5 1t-84.5 3q-23 2 -31.5 14.5t-6.5 27t13.5 26t29.5 10.5q8 -1 14 3.5t11 11.5l5 531q-5 4 -9.5 6.5t-10.5 1.5q-18 -1 -29 10.5t-13 26t7 27t31 14.5q45 3 82 3.5t49 0.5q19 1 27 -9t7.5 -22.5t-8 -24
t-19.5 -12.5q-16 -2 -24.5 -7t-13.5 -14l-12 -533q6 -12 15 -18.5t28 -8.5zM26 916q23 -3 34 -14.5t13 -25.5t-3 -27t-14 -18q-18 -11 -40.5 -9t-36.5 23q-7 11 -5.5 24t9 24t19 17.5t24.5 5.5zM268 884q23 -3 34 -14.5t13 -25t-3 -26.5t-14 -19q-18 -11 -40.5 -9t-36.5 24
q-7 10 -5.5 23t9 24t19 17.5t24.5 5.5z" />
    <glyph glyph-name="Ograve" unicode="&#xd2;" horiz-adv-x="498" 
d="M248 685q66 2 106.5 -24.5t62.5 -73t29.5 -109t7.5 -134.5q0 -71 -9.5 -132.5t-35 -106.5t-69.5 -71t-112 -26q-62 0 -102.5 30.5t-64 81.5t-31.5 118.5t-5 141.5q2 57 20 111.5t48 97t69.5 69t85.5 27.5zM305 912q14 -14 15.5 -34.5t-11.5 -33.5q-13 -12 -38 -6t-56 37
q-32 31 -35 47t11 30t38 16t47 -23z" />
    <glyph glyph-name="Oacute" unicode="&#xd3;" horiz-adv-x="498" 
d="M248 685q66 2 106.5 -24.5t62.5 -73t29.5 -109t7.5 -134.5q0 -71 -9.5 -132.5t-35 -106.5t-69.5 -71t-112 -26q-62 0 -102.5 30.5t-64 81.5t-31.5 118.5t-5 141.5q2 57 20 111.5t48 97t69.5 69t85.5 27.5zM258 868q-14 -14 -34.5 -15.5t-33.5 11.5q-12 13 -6 38t37 56
t47 34.5t30 -10.5t16 -38t-23 -47z" />
    <glyph glyph-name="Ocircumflex" unicode="&#xd4;" horiz-adv-x="498" 
d="M248 685q66 2 106.5 -24.5t62.5 -73t29.5 -109t7.5 -134.5q0 -71 -9.5 -132.5t-35 -106.5t-69.5 -71t-112 -26q-62 0 -102.5 30.5t-64 81.5t-31.5 118.5t-5 141.5q2 57 20 111.5t48 97t69.5 69t85.5 27.5zM182 827q-14 -12 -27.5 -11.5t-22.5 8t-10 20t10 24.5
q23 25 51 53t45 43q17 14 38.5 14.5t41.5 -23.5q17 -22 37 -51.5t31 -49.5q7 -13 3.5 -25t-13.5 -18.5t-22.5 -5.5t-22.5 13q-8 10 -18.5 23.5t-19.5 26.5l-22 30q-16 -14 -31 -27q-13 -11 -26 -23.5t-22 -20.5z" />
    <glyph glyph-name="Otilde" unicode="&#xd5;" horiz-adv-x="498" 
d="M248 685q66 2 106.5 -24.5t62.5 -73t29.5 -109t7.5 -134.5q0 -71 -9.5 -132.5t-35 -106.5t-69.5 -71t-112 -26q-62 0 -102.5 30.5t-64 81.5t-31.5 118.5t-5 141.5q2 57 20 111.5t48 97t69.5 69t85.5 27.5zM332 919q10 8 23.5 5.5t21 -11.5t5.5 -22.5t-21 -26.5
q-34 -24 -66 -24t-54 23q-8 8 -27.5 7t-36.5 -18q-9 -9 -23.5 -8t-23 9t-6.5 21.5t26 31.5q34 25 65.5 23.5t54.5 -22.5q11 -11 27.5 -7t34.5 19z" />
    <glyph glyph-name="Odieresis" unicode="&#xd6;" horiz-adv-x="498" 
d="M248 685q66 2 106.5 -24.5t62.5 -73t29.5 -109t7.5 -134.5q0 -71 -9.5 -132.5t-35 -106.5t-69.5 -71t-112 -26q-62 0 -102.5 30.5t-64 81.5t-31.5 118.5t-5 141.5q2 57 20 111.5t48 97t69.5 69t85.5 27.5zM129 916q23 -3 34 -14.5t13 -25.5t-3 -27t-14 -18
q-18 -11 -40.5 -9t-36.5 23q-7 11 -5.5 24t9 24t19 17.5t24.5 5.5zM371 884q23 -3 34 -14.5t13 -25t-3 -26.5t-14 -19q-18 -11 -40.5 -9t-36.5 24q-7 10 -5.5 23t9 24t19 17.5t24.5 5.5z" />
    <glyph glyph-name="Ugrave" unicode="&#xd9;" horiz-adv-x="594" 
d="M510 704q22 -2 31 -14.5t7 -26.5t-13.5 -25.5t-29.5 -10.5q-11 0 -19 -8.5t-14 -20.5l-4 -555v-16q-1 -9 -10.5 -13t-20.5 -3t-20.5 6t-10.5 15q-1 5 -2.5 14.5t-3.5 13.5q-26 -19 -48.5 -28t-42 -12t-35.5 -2.5t-29 0.5q-9 0 -24.5 1t-33 8t-36 21.5t-33 41.5t-24 69
t-9.5 103q0 115 2 211t4 155q-10 12 -22 12q-18 -1 -29.5 10.5t-13.5 25.5t7 26.5t31 14.5t43 3t39 1t31 0.5t19 0.5q18 1 26 -9t7.5 -23t-8 -24t-19.5 -13q-23 -3 -34 -12t-18 -31q0 -1 -0.5 -21t-1 -50.5t-1.5 -68t-1 -74.5v-69.5t1 -51.5q4 -97 30 -141.5t63 -44.5
q18 0 43.5 1t49 14.5t41.5 44.5t21 91q2 39 4.5 86.5t5 97t4.5 97.5t4 86q-6 15 -15 22.5t-30 10.5q-12 1 -19.5 12.5t-8 24t7.5 22.5t27 9q12 0 50.5 -0.5t84.5 -3.5zM353 912q14 -14 15.5 -34.5t-11.5 -33.5q-13 -12 -38 -6t-56 37q-32 31 -35 47t11 30t38 16t47 -23z" />
    <glyph glyph-name="Uacute" unicode="&#xda;" horiz-adv-x="594" 
d="M510 704q22 -2 31 -14.5t7 -26.5t-13.5 -25.5t-29.5 -10.5q-11 0 -19 -8.5t-14 -20.5l-4 -555v-16q-1 -9 -10.5 -13t-20.5 -3t-20.5 6t-10.5 15q-1 5 -2.5 14.5t-3.5 13.5q-26 -19 -48.5 -28t-42 -12t-35.5 -2.5t-29 0.5q-9 0 -24.5 1t-33 8t-36 21.5t-33 41.5t-24 69
t-9.5 103q0 115 2 211t4 155q-10 12 -22 12q-18 -1 -29.5 10.5t-13.5 25.5t7 26.5t31 14.5t43 3t39 1t31 0.5t19 0.5q18 1 26 -9t7.5 -23t-8 -24t-19.5 -13q-23 -3 -34 -12t-18 -31q0 -1 -0.5 -21t-1 -50.5t-1.5 -68t-1 -74.5v-69.5t1 -51.5q4 -97 30 -141.5t63 -44.5
q18 0 43.5 1t49 14.5t41.5 44.5t21 91q2 39 4.5 86.5t5 97t4.5 97.5t4 86q-6 15 -15 22.5t-30 10.5q-12 1 -19.5 12.5t-8 24t7.5 22.5t27 9q12 0 50.5 -0.5t84.5 -3.5zM306 868q-14 -14 -34.5 -15.5t-33.5 11.5q-12 13 -6 38t37 56t47 34.5t30 -10.5t16 -38t-23 -47z" />
    <glyph glyph-name="Ucircumflex" unicode="&#xdb;" horiz-adv-x="594" 
d="M510 704q22 -2 31 -14.5t7 -26.5t-13.5 -25.5t-29.5 -10.5q-11 0 -19 -8.5t-14 -20.5l-4 -555v-16q-1 -9 -10.5 -13t-20.5 -3t-20.5 6t-10.5 15q-1 5 -2.5 14.5t-3.5 13.5q-26 -19 -48.5 -28t-42 -12t-35.5 -2.5t-29 0.5q-9 0 -24.5 1t-33 8t-36 21.5t-33 41.5t-24 69
t-9.5 103q0 115 2 211t4 155q-10 12 -22 12q-18 -1 -29.5 10.5t-13.5 25.5t7 26.5t31 14.5t43 3t39 1t31 0.5t19 0.5q18 1 26 -9t7.5 -23t-8 -24t-19.5 -13q-23 -3 -34 -12t-18 -31q0 -1 -0.5 -21t-1 -50.5t-1.5 -68t-1 -74.5v-69.5t1 -51.5q4 -97 30 -141.5t63 -44.5
q18 0 43.5 1t49 14.5t41.5 44.5t21 91q2 39 4.5 86.5t5 97t4.5 97.5t4 86q-6 15 -15 22.5t-30 10.5q-12 1 -19.5 12.5t-8 24t7.5 22.5t27 9q12 0 50.5 -0.5t84.5 -3.5zM230 827q-14 -12 -27.5 -11.5t-22.5 8t-10 20t10 24.5q23 25 51 53t45 43q17 14 38.5 14.5t41.5 -23.5
q17 -22 37 -51.5t31 -49.5q7 -13 3.5 -25t-13.5 -18.5t-22.5 -5.5t-22.5 13q-8 10 -18.5 23.5t-19.5 26.5l-22 30q-16 -14 -31 -27q-13 -11 -26 -23.5t-22 -20.5z" />
    <glyph glyph-name="Udieresis" unicode="&#xdc;" horiz-adv-x="594" 
d="M510 704q22 -2 31 -14.5t7 -26.5t-13.5 -25.5t-29.5 -10.5q-11 0 -19 -8.5t-14 -20.5l-4 -555v-16q-1 -9 -10.5 -13t-20.5 -3t-20.5 6t-10.5 15q-1 5 -2.5 14.5t-3.5 13.5q-26 -19 -48.5 -28t-42 -12t-35.5 -2.5t-29 0.5q-9 0 -24.5 1t-33 8t-36 21.5t-33 41.5t-24 69
t-9.5 103q0 115 2 211t4 155q-10 12 -22 12q-18 -1 -29.5 10.5t-13.5 25.5t7 26.5t31 14.5t43 3t39 1t31 0.5t19 0.5q18 1 26 -9t7.5 -23t-8 -24t-19.5 -13q-23 -3 -34 -12t-18 -31q0 -1 -0.5 -21t-1 -50.5t-1.5 -68t-1 -74.5v-69.5t1 -51.5q4 -97 30 -141.5t63 -44.5
q18 0 43.5 1t49 14.5t41.5 44.5t21 91q2 39 4.5 86.5t5 97t4.5 97.5t4 86q-6 15 -15 22.5t-30 10.5q-12 1 -19.5 12.5t-8 24t7.5 22.5t27 9q12 0 50.5 -0.5t84.5 -3.5zM177 916q23 -3 34 -14.5t13 -25.5t-3 -27t-14 -18q-18 -11 -40.5 -9t-36.5 23q-7 11 -5.5 24t9 24
t19 17.5t24.5 5.5zM419 884q23 -3 34 -14.5t13 -25t-3 -26.5t-14 -19q-18 -11 -40.5 -9t-36.5 24q-7 10 -5.5 23t9 24t19 17.5t24.5 5.5z" />
    <glyph glyph-name="equal" unicode="=" horiz-adv-x="453" 
d="M327 170q-3 0 -31.5 1t-64 2.5t-68 2.5t-42.5 2q-15 1 -22 11.5t-6.5 22.5t8.5 22t25 11q5 0 33 -0.5t62 -1t65 -1t41 -0.5q18 0 26.5 -11.5t8.5 -25t-9 -25t-26 -10.5zM125 372q3 0 31.5 0.5t64 1.5t68 1.5t42.5 0.5q15 0 23 -10t8 -22.5t-8 -23t-24 -12.5q-5 0 -33 -1
t-62 -2.5t-65 -2.5t-41 -1q-18 -1 -27 10t-10 24.5t7.5 25t25.5 11.5z" />
    <glyph glyph-name="less" unicode="&#x3c;" horiz-adv-x="388" 
d="M238 226q12 -13 11.5 -26.5t-8 -22.5t-20 -10t-24.5 10t-26 24.5t-27 26.5t-24.5 25t-18.5 20q-14 17 -15 38.5t23 40.5q23 18 52.5 38t49.5 31q13 7 24.5 3t18 -13.5t5.5 -22t-13 -22.5q-10 -8 -23 -18.5t-26 -19.5l-30 -22q14 -16 27 -31q11 -13 23.5 -26.5t20.5 -22.5
z" />
    <glyph glyph-name="ellipsis" unicode="&#x2026;" horiz-adv-x="692" 
d="M146 133q23 -3 34 -14.5t13 -25.5t-3.5 -27t-14.5 -18q-17 -11 -40 -9t-36 23q-7 10 -5.5 23t9 24.5t19 18t24.5 5.5zM322 113q23 -3 34 -14.5t13 -25.5t-3.5 -27t-14.5 -18q-17 -11 -40 -9t-36 23q-7 10 -5.5 23t9 24.5t19 18t24.5 5.5zM526 129q23 -3 34 -14.5
t13 -25.5t-3.5 -27t-14.5 -18q-17 -11 -40 -9t-36 23q-7 10 -5.5 23t9 24.5t19 18t24.5 5.5z" />
    <glyph glyph-name="quotedblbase" unicode="&#x201e;" horiz-adv-x="425" 
d="M182 4q-13 -21 -26 -25.5t-21.5 0t-10 15.5t9.5 21q-16 5 -29 17.5t-10 32.5q2 12 10.5 22t20 15.5t24 5t23.5 -8.5q12 -9 17 -21.5t5 -25.5t-3.5 -25.5t-9.5 -22.5zM322 -16q-13 -21 -26 -25.5t-21.5 0t-10 15.5t9.5 21q-16 5 -29 17.5t-10 32.5q2 12 10.5 22t20 15.5
t24 5t23.5 -8.5q12 -9 17 -21.5t5 -25.5t-3.5 -25.5t-9.5 -22.5z" />
    <glyph glyph-name="quotesinglbase" unicode="&#x201a;" horiz-adv-x="279" 
d="M176 -19q-13 -21 -26 -25.5t-21.5 0t-10 15.5t9.5 21q-16 5 -29 17.5t-10 32.5q2 12 10.5 22t20 15.5t24 5t23.5 -8.5q12 -9 17 -21.5t5 -25.5t-3.5 -25.5t-9.5 -22.5z" />
    <glyph glyph-name="hungarumlaut" unicode="&#x2dd;" horiz-adv-x="417" 
d="M174 759q18 -8 29.5 -29.5t-2.5 -51.5l-19 -40q-8 -19 -26 -28t-35 -2t-21 32t13 67q8 21 15.5 33t14.5 17.5t14.5 5.5t16.5 -4zM296 750q18 -8 29.5 -29.5t-2.5 -51.5l-20 -40q-8 -19 -25.5 -28t-34.5 -2t-21 32.5t13 66.5q8 21 15 33t14 17.5t15 5.5t17 -4z" />
    <glyph glyph-name="fraction" unicode="&#x2044;" horiz-adv-x="380" 
d="M44 63q1 2 9 25t21.5 59t30 82t34.5 94.5t35.5 96t32.5 87t25.5 67.5t14.5 37q8 18 22.5 22.5t27.5 -2.5t20.5 -22t1.5 -36q-2 -6 -15.5 -45t-33 -95t-42 -120.5t-42.5 -122.5t-35 -101t-19 -56q-6 -19 -23 -22.5t-33.5 2.5t-27 20t-4.5 30z" />
    </font>
</defs>
</svg>
